<svg xmlns="http://www.w3.org/2000/svg"  viewBox="0 0 100 100" width="400px" height="400px"><path fill="#fefdef" d="M70,67.473c0,14.08-8.95,25.5-20,25.5s-20-11.42-20-25.5c0-5.21,1.23-10.05,3.34-14.09 c3.57-6.88,9.7-11.41,16.66-11.41c7.16,0,13.44,4.8,16.97,12.01C68.89,57.893,70,62.523,70,67.473z"/><path fill="#1f212b" d="M50,93.973c-11.58,0-21-11.888-21-26.5c0-5.194,1.194-10.227,3.454-14.553 C36.335,45.44,42.895,40.973,50,40.973c7.335,0,14.015,4.699,17.868,12.57C69.917,57.715,71,62.531,71,67.473 C71,82.085,61.58,93.973,50,93.973z M50,42.973c-6.344,0-12.24,4.063-15.772,10.871C32.116,57.888,31,62.6,31,67.473 c0,13.51,8.523,24.5,19,24.5s19-10.99,19-24.5c0-4.637-1.012-9.149-2.928-13.05C62.562,47.253,56.554,42.973,50,42.973z"/><path fill="#fefdef" d="M42.5,79.973h-9c-3.59,0-6.5,2.91-6.5,6.5v0c0,3.59,2.91,6.5,6.5,6.5h9c3.59,0,6.5-2.91,6.5-6.5v0 C49,82.883,46.09,79.973,42.5,79.973z"/><path fill="#1f212b" d="M42.5,93.973h-9c-4.136,0-7.5-3.364-7.5-7.5s3.364-7.5,7.5-7.5h9c4.136,0,7.5,3.364,7.5,7.5 S46.636,93.973,42.5,93.973z M33.5,80.973c-3.033,0-5.5,2.468-5.5,5.5s2.467,5.5,5.5,5.5h9c3.033,0,5.5-2.468,5.5-5.5 s-2.467-5.5-5.5-5.5H33.5z"/><path fill="#fefdef" d="M66.5,79.973h-9c-3.59,0-6.5,2.91-6.5,6.5v0c0,3.59,2.91,6.5,6.5,6.5h9c3.59,0,6.5-2.91,6.5-6.5v0 C73,82.883,70.09,79.973,66.5,79.973z"/><path fill="#1f212b" d="M66.5,93.973h-9c-4.136,0-7.5-3.364-7.5-7.5s3.364-7.5,7.5-7.5h9c4.136,0,7.5,3.364,7.5,7.5 S70.636,93.973,66.5,93.973z M57.5,80.973c-3.033,0-5.5,2.468-5.5,5.5s2.467,5.5,5.5,5.5h9c3.033,0,5.5-2.468,5.5-5.5 s-2.467-5.5-5.5-5.5H57.5z"/><circle cx="58" cy="87.973" r="4.5" fill="#b77748"/><path fill="#1f212b" d="M58,92.973c-2.757,0-5-2.243-5-5s2.243-5,5-5s5,2.243,5,5S60.757,92.973,58,92.973z M58,83.973 c-2.206,0-4,1.794-4,4s1.794,4,4,4s4-1.794,4-4S60.206,83.973,58,83.973z"/><circle cx="42" cy="87.973" r="4.5" fill="#b77748"/><path fill="#1f212b" d="M42,92.973c-2.757,0-5-2.243-5-5s2.243-5,5-5s5,2.243,5,5S44.757,92.973,42,92.973z M42,83.973 c-2.206,0-4,1.794-4,4s1.794,4,4,4s4-1.794,4-4S44.206,83.973,42,83.973z"/><circle cx="30" cy="13.973" r="4" fill="#fefdef"/><path fill="#1f212b" d="M30,18.973c-2.757,0-5-2.243-5-5s2.243-5,5-5s5,2.243,5,5S32.757,18.973,30,18.973z M30,10.973 c-1.654,0-3,1.346-3,3s1.346,3,3,3s3-1.346,3-3S31.654,10.973,30,10.973z"/><circle cx="70" cy="13.973" r="4" fill="#fefdef"/><path fill="#1f212b" d="M70,18.973c-2.757,0-5-2.243-5-5s2.243-5,5-5s5,2.243,5,5S72.757,18.973,70,18.973z M70,10.973 c-1.654,0-3,1.346-3,3s1.346,3,3,3s3-1.346,3-3S71.654,10.973,70,10.973z"/><path fill="#fefdef" d="M68,63.973c-3.238,0-5.819,3.183-6.686,6.593C60.619,70.2,59.84,69.973,59,69.973 c-2.761,0-5,2.239-5,5s2.239,5,5,5c1.706,0,3.208-0.857,4.111-2.161c1.048,0.785,2.404,1.161,3.889,1.161c3.314,0,6-3.358,6-7.5 S71.314,63.973,68,63.973z"/><path fill="#1f212b" d="M59,80.973c-3.309,0-6-2.691-6-6s2.691-6,6-6c0.568,0,1.131,0.085,1.681,0.253 c1.147-3.187,3.751-6.253,7.319-6.253c3.645,0,6,3.337,6,8.5c0,4.687-3.14,8.5-7,8.5c-1.373,0-2.625-0.29-3.676-0.847 C62.201,80.296,60.643,80.973,59,80.973z M59,70.973c-2.206,0-4,1.794-4,4s1.794,4,4,4c1.309,0,2.538-0.646,3.288-1.73 c0.155-0.223,0.394-0.374,0.662-0.418c0.265-0.044,0.542,0.023,0.76,0.187c0.841,0.629,1.979,0.962,3.291,0.962 c2.757,0,5-2.916,5-6.5c0-2.998-1.047-6.5-4-6.5c-2.778,0-4.979,2.938-5.716,5.839c-0.076,0.297-0.283,0.543-0.563,0.668 c-0.279,0.125-0.601,0.113-0.873-0.029C60.247,71.133,59.625,70.973,59,70.973z"/><path fill="#fefdef" d="M41,69.973c-0.84,0-1.619,0.227-2.314,0.593c-0.867-3.41-3.448-6.593-6.686-6.593 c-3.314,0-5,3.358-5,7.5s2.686,7.5,6,7.5c1.485,0,2.842-0.377,3.889-1.161c0.902,1.304,2.405,2.161,4.111,2.161 c2.761,0,5-2.239,5-5S43.761,69.973,41,69.973z"/><path fill="#1f212b" d="M41,80.973c-1.643,0-3.201-0.677-4.324-1.847c-1.051,0.557-2.303,0.847-3.676,0.847 c-3.86,0-7-3.813-7-8.5c0-5.163,2.355-8.5,6-8.5c3.568,0,6.172,3.066,7.319,6.253c0.55-0.168,1.112-0.253,1.681-0.253 c3.309,0,6,2.691,6,6S44.309,80.973,41,80.973z M36.89,76.812c0.054,0,0.107,0.004,0.161,0.013 c0.268,0.044,0.507,0.195,0.662,0.418c0.75,1.084,1.979,1.73,3.288,1.73c2.206,0,4-1.794,4-4s-1.794-4-4-4 c-0.625,0-1.247,0.16-1.848,0.478c-0.271,0.142-0.593,0.153-0.873,0.029c-0.28-0.125-0.487-0.371-0.563-0.668 c-0.737-2.901-2.938-5.839-5.716-5.839c-2.953,0-4,3.502-4,6.5c0,3.584,2.243,6.5,5,6.5c1.312,0,2.45-0.333,3.291-0.962 C36.464,76.881,36.675,76.812,36.89,76.812z"/><path fill="#e85654" d="M66.97,53.983c-7.56,5.48-25.68,10.12-28.47,8.49c-3-1.75-5-7.25-5-9l-0.16-0.09 c3.57-6.88,9.7-11.41,16.66-11.41C57.16,41.973,63.44,46.773,66.97,53.983z"/><path fill="#1f212b" d="M40.483,63.291c-1.013,0-1.783-0.123-2.235-0.387c-3.061-1.785-5.055-7.02-5.234-9.143 c-0.172-0.148-0.226-0.4-0.117-0.609c3.795-7.313,10.189-11.68,17.104-11.68c7.14,0,13.651,4.595,17.419,12.29 c0.107,0.218,0.041,0.481-0.156,0.625C60.901,58.999,46.477,63.291,40.483,63.291z M33.96,53.278 c0.026,0.061,0.04,0.126,0.04,0.194c0,1.729,2.007,6.967,4.752,8.568c2.499,1.459,20.055-3.018,27.579-8.219 c-3.621-7.115-9.7-11.35-16.331-11.35C43.571,42.473,37.599,46.504,33.96,53.278z"/><ellipse cx="70.316" cy="52.299" fill="#e85654" rx="2.5" ry="5.639" transform="rotate(-66.816 70.313 52.296)"/><path fill="#1f212b" d="M72.406,55.733c-1.097,0-2.217-0.225-3.271-0.676c-2.179-0.934-3.854-2.74-4.482-4.834 c-0.069-0.231,0.037-0.479,0.252-0.589c1.946-0.991,4.411-1.026,6.591-0.093c2.179,0.934,3.855,2.74,4.482,4.834 c0.069,0.231-0.037,0.479-0.252,0.589C74.721,55.476,73.577,55.733,72.406,55.733z M65.75,50.344 c0.629,1.639,2.014,3.037,3.778,3.793c1.766,0.757,3.733,0.794,5.354,0.117c-0.629-1.639-2.014-3.037-3.779-3.793 C69.336,49.704,67.369,49.667,65.75,50.344z"/><ellipse cx="68.639" cy="54.302" fill="#e85654" rx="2.5" ry="5.639" transform="rotate(-42.39 68.64 54.3)"/><path fill="#1f212b" d="M72.169,58.973c-2.091,0-4.219-0.976-5.746-2.648l0,0c-1.599-1.751-2.376-4.09-2.082-6.255 c0.033-0.239,0.232-0.422,0.474-0.432c2.175-0.119,4.441,0.89,6.04,2.642c1.598,1.751,2.376,4.089,2.082,6.255 c-0.033,0.239-0.232,0.422-0.474,0.432C72.365,58.971,72.267,58.973,72.169,58.973z M67.162,55.651 c1.294,1.418,3.071,2.265,4.826,2.319c0.105-1.752-0.577-3.599-1.871-5.017s-3.071-2.266-4.826-2.319 C65.185,52.386,65.867,54.232,67.162,55.651L67.162,55.651z"/><path fill="#fefdef" d="M78,31.973c0-2.731-1.568-5.091-3.849-6.245c0.693-1.086,1.099-2.372,1.099-3.755 c0-3.866-3.134-7-7-7c-0.105,0-0.207,0.011-0.311,0.016C67.977,14.655,68,14.317,68,13.973c0-4.971-4.029-9-9-9s-9,4.029-9,9 c0-4.971-4.029-9-9-9s-9,4.029-9,9c0,0.344,0.023,0.682,0.061,1.016c-0.104-0.005-0.206-0.016-0.311-0.016c-3.866,0-7,3.134-7,7 c0,1.383,0.407,2.669,1.099,3.755C23.568,26.882,22,29.242,22,31.973c0,2.738,1.576,5.102,3.866,6.253 C24.711,39.474,24,41.138,24,42.973c0,3.866,3.134,7,7,7c1.003,0,1.954-0.215,2.817-0.594c1.643,2.179,4.244,3.594,7.183,3.594 c1.599,0,3.097-0.421,4.398-1.152c1.101,1.315,2.753,2.152,4.602,2.152s3.501-0.837,4.602-2.152c1.301,0.731,2.8,1.152,4.398,1.152 c2.939,0,5.541-1.415,7.183-3.594c0.862,0.38,1.814,0.594,2.817,0.594c3.866,0,7-3.134,7-7c0-1.834-0.711-3.499-1.866-4.747 C76.424,37.075,78,34.711,78,31.973z"/><path fill="#1f212b" d="M50,54.973c-1.805,0-3.52-0.691-4.815-1.921c-1.309,0.604-2.741,0.921-4.185,0.921 c-2.906,0-5.6-1.23-7.502-3.401c-0.807,0.267-1.644,0.401-2.498,0.401c-4.411,0-8-3.589-8-8c0-1.607,0.483-3.159,1.377-4.477 C22.269,37.01,21,34.604,21,31.973c0-2.684,1.321-5.135,3.507-6.613c-0.498-1.058-0.757-2.212-0.757-3.387 c0-4.158,3.189-7.586,7.25-7.965c0-0.012,0-0.023,0-0.035c0-5.514,4.486-10,10-10c3.953,0,7.378,2.306,9,5.643 c1.622-3.337,5.047-5.643,9-5.643c5.514,0,10,4.486,10,10c0,0.012,0,0.023,0,0.035c4.061,0.379,7.25,3.807,7.25,7.965 c0,1.175-0.259,2.329-0.757,3.387C77.679,26.838,79,29.289,79,31.973c0,2.631-1.269,5.037-3.377,6.523 C76.517,39.814,77,41.365,77,42.973c0,4.411-3.589,8-8,8c-0.854,0-1.691-0.135-2.498-0.401C64.6,52.742,61.906,53.973,59,53.973 c-1.444,0-2.876-0.316-4.185-0.921C53.52,54.281,51.805,54.973,50,54.973z M45.398,50.82c0.288,0,0.572,0.124,0.767,0.358 c0.955,1.14,2.353,1.794,3.835,1.794s2.88-0.654,3.835-1.794c0.308-0.371,0.836-0.465,1.257-0.23 c1.191,0.67,2.543,1.024,3.908,1.024c2.527,0,4.854-1.165,6.385-3.195c0.278-0.371,0.776-0.501,1.201-0.313 c0.769,0.338,1.581,0.509,2.414,0.509c3.309,0,6-2.691,6-6c0-1.508-0.568-2.953-1.6-4.068c-0.213-0.23-0.306-0.548-0.25-0.857 c0.056-0.309,0.254-0.574,0.535-0.715C75.73,36.305,77,34.251,77,31.973c0-2.271-1.265-4.322-3.3-5.352 c-0.252-0.128-0.438-0.355-0.513-0.628s-0.031-0.564,0.121-0.803c0.617-0.967,0.942-2.079,0.942-3.218c0-3.309-2.691-6-6-6 l-0.264,0.015c-0.293,0.013-0.576-0.102-0.777-0.315c-0.2-0.214-0.296-0.505-0.264-0.796C66.979,14.579,67,14.278,67,13.973 c0-4.411-3.589-8-8-8s-8,3.589-8,8c0,0.553-0.448,1-1,1s-1-0.447-1-1c0-4.411-3.589-8-8-8s-8,3.589-8,8 c0,0.306,0.021,0.606,0.055,0.903c0.033,0.291-0.063,0.582-0.264,0.796c-0.201,0.214-0.49,0.327-0.777,0.315l-0.264-0.015 c-3.309,0-6,2.691-6,6c0,1.139,0.326,2.251,0.942,3.218c0.152,0.238,0.196,0.53,0.121,0.803s-0.261,0.5-0.513,0.628 c-2.036,1.029-3.3,3.08-3.3,5.352c0,2.278,1.27,4.332,3.315,5.359c0.281,0.141,0.479,0.406,0.535,0.715 c0.056,0.31-0.037,0.627-0.25,0.857c-1.032,1.115-1.6,2.561-1.6,4.068c0,3.309,2.691,6,6,6c0.833,0,1.645-0.171,2.414-0.509 c0.425-0.187,0.922-0.058,1.201,0.313c1.531,2.03,3.858,3.195,6.385,3.195c1.365,0,2.717-0.354,3.908-1.024 C45.062,50.862,45.231,50.82,45.398,50.82z"/><circle cx="45" cy="32.973" r="1.5" fill="#444445"/><path fill="#1f212b" d="M45,34.973c-1.103,0-2-0.897-2-2c0-1.103,0.897-2,2-2s2,0.897,2,2 C47,34.075,46.103,34.973,45,34.973z M45,31.973c-0.551,0-1,0.448-1,1s0.449,1,1,1s1-0.448,1-1S45.551,31.973,45,31.973z"/><g><circle cx="55" cy="32.973" r="1.5" fill="#444445"/><path fill="#1f212b" d="M55,34.973c-1.103,0-2-0.897-2-2c0-1.103,0.897-2,2-2s2,0.897,2,2 C57,34.075,56.103,34.973,55,34.973z M55,31.973c-0.551,0-1,0.448-1,1s0.449,1,1,1s1-0.448,1-1S55.551,31.973,55,31.973z"/></g><g><path fill="#444445" d="M52,35.473c0-0.828-0.895-1-2-1s-2,0.172-2,1c0,0.828,0.895,2,2,2S52,36.301,52,35.473z"/><path fill="#1f212b" d="M50,37.973c-1.346,0-2.5-1.375-2.5-2.5c0-1.5,1.882-1.5,2.5-1.5s2.5,0,2.5,1.5 C52.5,36.598,51.346,37.973,50,37.973z M50,34.973c-1.5,0-1.5,0.351-1.5,0.5c0,0.579,0.687,1.5,1.5,1.5s1.5-0.921,1.5-1.5 C51.5,35.323,51.5,34.973,50,34.973z"/></g><path fill="#1f212b" d="M42.5,28.973c-0.162,0-0.32-0.078-0.417-0.223c-0.153-0.229-0.091-0.54,0.139-0.693l3-2	c0.229-0.153,0.54-0.092,0.693,0.139c0.153,0.229,0.091,0.54-0.139,0.693l-3,2C42.692,28.945,42.596,28.973,42.5,28.973z"/><path fill="#1f212b" d="M57.5,28.973c-0.095,0-0.191-0.027-0.277-0.084l-3-2c-0.23-0.153-0.292-0.464-0.139-0.693	c0.152-0.23,0.462-0.292,0.693-0.139l3,2c0.23,0.153,0.292,0.464,0.139,0.693C57.82,28.895,57.661,28.973,57.5,28.973z"/><path fill="#1f212b" d="M47.83,41.943c-1.372,0-2.83-0.865-2.83-2.47c0-0.276,0.224-0.5,0.5-0.5s0.5,0.224,0.5,0.5	c0,1.458,2.129,1.81,3.014,1.098c0.322-0.258,0.486-0.627,0.486-1.098v-1.5c0-0.276,0.224-0.5,0.5-0.5s0.5,0.224,0.5,0.5v1.5	c0,0.777-0.298,1.428-0.861,1.879C49.164,41.733,48.521,41.943,47.83,41.943z"/><path fill="#1f212b" d="M52.17,41.943c-0.691,0-1.333-0.21-1.809-0.591c-0.563-0.451-0.861-1.102-0.861-1.879v-1.5	c0-0.276,0.224-0.5,0.5-0.5s0.5,0.224,0.5,0.5v1.5c0,0.471,0.164,0.84,0.486,1.098C51.873,41.282,54,40.931,54,39.473	c0-0.276,0.224-0.5,0.5-0.5s0.5,0.224,0.5,0.5C55,41.077,53.542,41.943,52.17,41.943z"/><path fill="#1f212b" d="M39.5,22.973c-4.894,0-7.5-4.355-7.5-7.5c0-0.276,0.224-0.5,0.5-0.5s0.5,0.224,0.5,0.5	c0,2.725,2.259,6.5,6.5,6.5c0.276,0,0.5,0.224,0.5,0.5S39.776,22.973,39.5,22.973z"/><path fill="#1f212b" d="M30.807,28.55c-2.844,0-4.551-1.947-5.004-2.854c-0.124-0.247-0.023-0.547,0.224-0.671	c0.247-0.125,0.547-0.023,0.671,0.224c0.018,0.037,2.065,3.63,6.612,1.762c0.257-0.105,0.548,0.016,0.653,0.271	s-0.017,0.548-0.272,0.652C32.628,28.372,31.665,28.55,30.807,28.55z"/><path fill="#1f212b" d="M28.443,38.923c-1.068,0-2.04-0.272-2.743-0.8c-0.221-0.166-0.266-0.479-0.1-0.7	c0.166-0.22,0.479-0.266,0.7-0.101c0.863,0.647,2.372,0.783,3.84,0.345c1.425-0.424,2.505-1.309,2.89-2.365	c0.094-0.259,0.38-0.392,0.641-0.299c0.259,0.094,0.394,0.381,0.299,0.641c-0.5,1.373-1.791,2.461-3.544,2.982	C29.755,38.825,29.082,38.923,28.443,38.923z"/><path fill="#1f212b" d="M34.5,49.973c-0.149,0-0.296-0.066-0.395-0.193c-2-2.571-1.495-6.636,1.082-8.697	c0.216-0.171,0.53-0.137,0.703,0.078c0.172,0.216,0.137,0.53-0.078,0.703c-2.397,1.917-2.407,5.388-0.918,7.303	c0.17,0.218,0.13,0.532-0.087,0.701C34.716,49.939,34.607,49.973,34.5,49.973z"/><g><path fill="#1f212b" d="M60.5,22.973c-0.276,0-0.5-0.224-0.5-0.5s0.224-0.5,0.5-0.5c4.241,0,6.5-3.775,6.5-6.5 c0-0.276,0.224-0.5,0.5-0.5s0.5,0.224,0.5,0.5C68,18.617,65.394,22.973,60.5,22.973z"/><path fill="#1f212b" d="M69.193,28.55c-0.859,0-1.821-0.177-2.884-0.615c-0.255-0.104-0.377-0.396-0.272-0.652 c0.106-0.256,0.396-0.378,0.653-0.271c4.55,1.87,6.594-1.725,6.612-1.762c0.124-0.247,0.424-0.349,0.671-0.224 c0.247,0.124,0.347,0.424,0.224,0.671C73.744,26.603,72.037,28.55,69.193,28.55z"/><path fill="#1f212b" d="M71.557,38.923c-0.639,0-1.312-0.098-1.982-0.297c-1.753-0.521-3.045-1.609-3.544-2.982 c-0.095-0.26,0.04-0.547,0.299-0.641c0.261-0.094,0.546,0.04,0.641,0.299c0.385,1.057,1.465,1.941,2.89,2.365 c1.469,0.438,2.977,0.303,3.84-0.345c0.22-0.166,0.534-0.12,0.7,0.101s0.121,0.534-0.1,0.7 C73.597,38.651,72.625,38.923,71.557,38.923z"/><path fill="#1f212b" d="M65.5,49.973c-0.107,0-0.215-0.034-0.307-0.105c-0.218-0.169-0.257-0.483-0.087-0.701 c1.489-1.915,1.479-5.386-0.918-7.303c-0.215-0.173-0.25-0.487-0.078-0.703c0.173-0.215,0.488-0.249,0.703-0.078 c2.577,2.062,3.083,6.126,1.082,8.697C65.796,49.906,65.648,49.973,65.5,49.973z"/></g><g><circle cx="46.5" cy="78.473" r="3" fill="#b77748"/><path fill="#1f212b" d="M46.5,81.973c-1.93,0-3.5-1.57-3.5-3.5s1.57-3.5,3.5-3.5s3.5,1.57,3.5,3.5S48.43,81.973,46.5,81.973 z M46.5,75.973c-1.378,0-2.5,1.121-2.5,2.5s1.122,2.5,2.5,2.5s2.5-1.121,2.5-2.5S47.878,75.973,46.5,75.973z"/></g><g><circle cx="53.5" cy="78.473" r="3" fill="#b77748"/><path fill="#1f212b" d="M53.5,81.973c-1.93,0-3.5-1.57-3.5-3.5s1.57-3.5,3.5-3.5s3.5,1.57,3.5,3.5S55.43,81.973,53.5,81.973 z M53.5,75.973c-1.378,0-2.5,1.121-2.5,2.5s1.122,2.5,2.5,2.5s2.5-1.121,2.5-2.5S54.878,75.973,53.5,75.973z"/></g></svg>