<svg xmlns="http://www.w3.org/2000/svg"  viewBox="0 0 64 64" width="512px" height="512px" baseProfile="basic"><ellipse cx="32" cy="61" opacity=".3" rx="19" ry="3"/><path fill="#4ccff1" d="M41,15.938V17H23v-1c0-3.314-2.686-6-6-6h0c-3.314,0-6,2.686-6,6v31.333	C11,49.911,13.089,52,15.667,52h32.667C50.911,52,53,49.911,53,47.333V15.938c0-3.281-2.662-5.939-5.943-5.934	c-0.045,0-0.09,0-0.135,0C43.65,10.01,41,12.665,41,15.938z"/><path fill="#fff" d="M11,30c2.762,0,5-2.238,5-5v-9c0-0.552,0.448-1,1-1c2.017,0,3.745-1.201,4.535-2.921 C20.435,10.808,18.813,10,17,10c-3.314,0-6,2.686-6,6L11,30L11,30z" opacity=".3"/><path d="M53,47.333V38h0c-2.762,0-5,2.238-5,5v4h-3c-2.762,0-5,2.238-5,5h8.333 C50.911,52,53,49.911,53,47.333z" opacity=".15"/><path fill="#ffa1ac" d="M32,22c-8.786,0-15.909,5.595-15.909,12.5S23.214,47,32,47s15.909-5.595,15.909-12.5S40.786,22,32,22	z"/><circle cx="25.004" cy="31" r="2" fill="#9c34c2"/><circle cx="39.013" cy="31" r="2" fill="#9c34c2"/><path fill="#9c34c2" d="M37.749,39.619c-1.584,1.586-3.668,2.379-5.749,2.379s-4.165-0.792-5.749-2.379	c-0.83-0.83-0.83-2.173,0-3.003c0.83-0.83,2.173-0.83,3.003,0c1.514,1.514,3.978,1.514,5.492,0c0.83-0.83,2.173-0.83,3.003,0	C38.579,37.446,38.579,38.788,37.749,39.619z"/><path fill="none" stroke="#fff" stroke-linecap="round" stroke-linejoin="round" stroke-miterlimit="10" stroke-width="3" d="M14.5,16c0-1.379,1.121-2.5,2.5-2.5"/></svg>