<svg xmlns="http://www.w3.org/2000/svg"  viewBox="0 0 100 100" width="400px" height="400px" baseProfile="basic"><path fill="#1f212b" d="M48.813,76.586c-0.005,0-0.009,0-0.014,0c-22.265-0.004-35.034-9.074-35.034-24.884	c0-4.096,0.978-8.088,2.906-11.874c-3.287-7.589-1.757-12.584-0.532-14.908c0.874-1.658,2.115-2.929,3.019-3.09	c4.836-0.861,10.79,1.571,14.162,3.25c6.968-2.828,14.595-3.604,22.641-1.974c7.486-5.555,13.448-7.896,17.72-6.968	c2.475,0.54,6.134,5.452,4.285,20.406c3.392,4.623,5.182,9.855,5.182,15.157c0,7.849-3.309,14.283-9.568,18.607	C67.637,74.416,59.073,76.586,48.813,76.586z M21.284,23.651c-0.609,0-1.204,0.046-1.775,0.147	c-0.211,0.107-1.317,1.129-2.068,3.093c-0.926,2.418-1.46,6.561,1.252,12.56l0.202,0.447l-0.23,0.434	c-1.923,3.622-2.898,7.447-2.898,11.37c0,14.539,12.041,22.88,33.034,22.884c0.005,0,0.01,0,0.014,0	c9.853,0,18.021-2.047,23.629-5.921c5.776-3.991,8.705-9.698,8.705-16.963c0-4.989-1.737-9.928-5.022-14.28l-0.246-0.325	l0.052-0.405c1.873-14.55-1.634-18.371-2.676-18.598c-2.577-0.564-7.525,0.177-16.456,6.883l-0.364,0.273l-0.445-0.096	c-7.971-1.698-15.49-0.925-22.322,1.946l-0.429,0.18l-0.414-0.211C30.666,25.967,25.615,23.651,21.284,23.651z"/><path fill="#1f212b" d="M20.589,43.729c-0.068,0-0.137-0.014-0.203-0.043c-0.252-0.112-0.366-0.407-0.254-0.66	c0.227-0.51,0.474-1.018,0.741-1.521c0.13-0.244,0.434-0.338,0.676-0.207c0.244,0.129,0.337,0.432,0.207,0.676	c-0.256,0.482-0.493,0.969-0.71,1.459C20.963,43.619,20.78,43.729,20.589,43.729z"/><path fill="#1f212b" d="M18.766,52.202c-0.276,0-0.5-0.224-0.5-0.5c0-2.208,0.352-4.406,1.044-6.533	c0.086-0.262,0.364-0.406,0.631-0.32c0.262,0.086,0.405,0.368,0.32,0.631c-0.66,2.025-0.995,4.119-0.995,6.223	C19.266,51.979,19.042,52.202,18.766,52.202z"/><polygon fill="#1f212b" points="73.331,39.53 72.226,38.065 72.459,36.245 73.451,36.372 73.269,37.788 74.13,38.929"/><path fill="#1f212b" d="M57.145,28.969c-0.151,0-0.302-0.069-0.399-0.199c-0.166-0.221-0.122-0.534,0.099-0.7l1.455-1.094	c0.223-0.168,0.535-0.12,0.7,0.099c0.166,0.221,0.122,0.534-0.099,0.7l-1.455,1.094C57.354,28.937,57.249,28.969,57.145,28.969z"/><path fill="#1f212b" d="M34.829,30.366c-0.195,0-0.381-0.115-0.461-0.306c-0.107-0.255,0.013-0.548,0.267-0.655	c0.632-0.266,1.271-0.511,1.916-0.736c2.51-0.878,5.14-1.458,7.815-1.725c0.277-0.032,0.52,0.173,0.547,0.447	c0.028,0.275-0.173,0.52-0.447,0.547c-2.598,0.26-5.15,0.822-7.585,1.674c-0.625,0.22-1.245,0.457-1.857,0.715	C34.96,30.354,34.894,30.366,34.829,30.366z"/><path d="M8.141,58.316c-0.451,0-0.86-0.307-0.971-0.765c-0.13-0.536,0.199-1.077,0.736-1.207c7.591-1.841,12.636-1.624,12.847-1.614	c0.551,0.026,0.977,0.494,0.95,1.046c-0.025,0.552-0.507,0.964-1.045,0.952c-0.051-0.007-4.995-0.206-12.281,1.56	C8.298,58.308,8.219,58.316,8.141,58.316z"/><path d="M12.027,66.082c-0.33,0-0.652-0.162-0.844-0.461c-0.297-0.464-0.163-1.081,0.301-1.379c0.138-0.089,3.436-2.176,9.723-3.341	c0.543-0.103,1.065,0.258,1.166,0.801c0.101,0.544-0.258,1.065-0.801,1.166c-5.865,1.087-8.978,3.037-9.008,3.058	C12.397,66.031,12.212,66.082,12.027,66.082z"/><path d="M15.451,74.772c-0.242,0-0.485-0.088-0.678-0.265c-0.404-0.374-0.432-1.003-0.06-1.409	c0.107-0.117,2.728-2.922,10.568-6.843c0.495-0.246,1.094-0.047,1.342,0.447c0.247,0.494,0.047,1.095-0.447,1.342	c-7.444,3.722-9.967,6.382-9.991,6.408C15.988,74.665,15.721,74.772,15.451,74.772z"/><path fill="#ee5490" d="M63.646,26.493c0,0-1.827-8.908-8.908-9.822c0,0-4.34-0.685-7.766,8.451	c0,0-2.741,8.451,2.741,10.964c0,0,3.655,1.37,10.507-2.056L63.646,26.493z"/><path fill="#1f212b" d="M51.967,22.188c-0.104,0-0.208-0.032-0.297-0.098c-0.223-0.164-0.27-0.478-0.105-0.699	c1.09-1.474,2.183-2.113,2.841-2.219c0.275-0.051,0.53,0.141,0.573,0.413c0.045,0.273-0.141,0.529-0.413,0.573	c-0.333,0.054-1.22,0.505-2.196,1.826C52.271,22.118,52.119,22.188,51.967,22.188z"/><path fill="#1f212b" d="M51.84,33.856c-0.578,0-0.969-0.061-1.15-0.097l-0.146-0.054c-3.06-1.708-1.225-7.713-1.205-7.773	c0.323-0.971,0.688-1.865,1.086-2.658c0.124-0.248,0.426-0.347,0.672-0.223s0.346,0.425,0.223,0.672	c-0.377,0.749-0.724,1.599-1.031,2.524c-0.34,1.021-1.27,5.351,0.676,6.545c0.156,0.026,0.453,0.063,0.876,0.063	c0.276,0,0.501,0.224,0.501,0.5S52.116,33.856,51.84,33.856z"/><path fill="#ee5490" d="M67.986,28.777c0,0,7.538-3.655,10.964-0.685s2.513,7.538,0,11.192	c-1.687,2.454-4.111,4.34-6.852,4.111c-2.741-0.228-5.482-2.056-7.081-6.396L67.986,28.777z"/><path fill="#1f212b" d="M76.478,38.085c-0.098,0-0.196-0.028-0.283-0.088c-0.228-0.156-0.285-0.468-0.129-0.695	c1.004-1.46,2.021-4.397,1.237-5.888c-0.349-0.663-1.025-0.985-2.07-0.985c-0.276,0-0.5-0.224-0.5-0.5s0.224-0.5,0.5-0.5	c1.782,0,2.591,0.826,2.956,1.52c1.033,1.966-0.137,5.229-1.299,6.92C76.793,38.009,76.636,38.085,76.478,38.085z"/><path fill="#212121" d="M76.895,51.02c-0.423,0-0.815-0.27-0.951-0.693c-0.17-0.525,0.119-1.089,0.645-1.259	c0.298-0.095,7.379-2.346,13.7-1.408c0.546,0.081,0.924,0.59,0.843,1.136c-0.08,0.547-0.584,0.921-1.136,0.843	c-5.855-0.868-12.726,1.312-12.794,1.334C77.1,51.004,76.996,51.02,76.895,51.02z"/><path fill="#212121" d="M88.315,57.872c-0.055,0-0.109-0.004-0.165-0.014c-3.979-0.663-9.148-0.672-9.2-0.672	c-0.553,0-1-0.448-1-1c0-0.553,0.447-1,1-1c0.218,0,5.384,0.008,9.528,0.699c0.545,0.091,0.913,0.606,0.822,1.15	C89.22,57.525,88.796,57.872,88.315,57.872z"/><path fill="#212121" d="M86.943,67.236c-0.161,0-0.324-0.039-0.476-0.121c-5.24-2.838-10.338-3.535-10.389-3.542	c-0.548-0.072-0.933-0.574-0.861-1.121c0.072-0.548,0.568-0.938,1.121-0.861c0.222,0.028,5.5,0.744,11.082,3.767	c0.485,0.263,0.666,0.869,0.402,1.355C87.643,67.047,87.299,67.236,86.943,67.236z"/><ellipse cx="31.951" cy="57.018" fill="#1f212b" rx="3.004" ry="3.982"/><ellipse cx="66.045" cy="54.983" fill="#1f212b" rx="3.002" ry="3.98"/><ellipse cx="49.993" cy="62.004" fill="#f9b621" rx="4.438" ry="3.495" transform="rotate(-2.987 50.039 62.059)"/><path fill="#1f212b" d="M49.876,66.002c-1.177,0-2.295-0.335-3.177-0.958c-0.999-0.706-1.581-1.694-1.638-2.782 c-0.115-2.2,2.004-4.105,4.723-4.247c2.737-0.14,5.025,1.532,5.141,3.731c0.115,2.2-2.004,4.105-4.723,4.247l0,0 C50.093,65.999,49.984,66.002,49.876,66.002z M50.107,59.006c-0.09,0-0.18,0.002-0.271,0.007c-2.169,0.113-3.863,1.548-3.777,3.196 c0.041,0.776,0.473,1.493,1.217,2.019c0.779,0.55,1.802,0.823,2.873,0.768l0,0c2.169-0.113,3.863-1.548,3.777-3.196 C53.844,60.219,52.156,59.006,50.107,59.006z"/><path fill="#1f212b" d="M57.707,32.246c-2.039,0-3.697-1.658-3.697-3.697s1.658-3.698,3.697-3.698	c1.309,0,2.493,0.67,3.17,1.792l-0.857,0.516c-0.493-0.818-1.357-1.308-2.313-1.308c-1.487,0-2.697,1.21-2.697,2.698	c0,1.487,1.21,2.697,2.697,2.697V32.246z"/><path fill="#1f212b" d="M70.612,37.949c-0.563,0-1.53-0.338-1.91-0.502l0.395-0.918c0.398,0.171,1.188,0.42,1.516,0.42	c2.248,0,2.584-1.549,2.584-2.472c0-1.363-1.159-2.472-2.584-2.472v-1c1.977,0,3.584,1.558,3.584,3.472	C74.196,36.619,72.823,37.949,70.612,37.949z"/><path fill="#1f212b" d="M51.994,36.858c-1.442,0-2.214-0.281-2.276-0.305c-5.775-2.683-3.118-11.222-3.003-11.584	c3.489-9.431,8.024-8.825,8.218-8.793c5.718,0.748,8.116,6.563,8.882,9.029l-0.955,0.297c-0.708-2.282-2.912-7.662-8.07-8.336	c-0.051-0.008-3.962-0.43-7.129,8.129c-0.019,0.059-2.497,8.04,2.446,10.337l0,0c0.004,0,2.788,0.965,7.938-1.136l0.377,0.926	C55.615,36.567,53.459,36.858,51.994,36.858z"/><path fill="#1f212b" d="M72.532,43.914c-0.159,0-0.317-0.007-0.477-0.021c-2.837-0.236-5.252-2.043-6.8-5.088l0.891-0.453	c1.775,3.492,4.239,4.398,5.992,4.545c2.229,0.189,4.568-1.233,6.399-3.896c2.208-3.213,3.39-7.667,0.085-10.531	c-2.372-2.055-7.145-0.548-9.088,0.195l-0.357-0.934c2.623-1.003,7.425-2.336,10.1-0.018c3.803,3.297,2.537,8.284,0.085,11.854	C77.446,42.354,74.981,43.913,72.532,43.914z"/><path d="M16.593,43.335c-0.132,0-0.266-0.025-0.395-0.081c-0.507-0.218-0.742-0.806-0.524-1.313c1.431-3.335,3.11-5.038,3.182-5.109	c0.391-0.391,1.023-0.391,1.414,0c0.39,0.39,0.391,1.021,0.002,1.412c-0.022,0.022-1.496,1.539-2.76,4.486	C17.35,43.108,16.98,43.335,16.593,43.335z"/><circle cx="64.103" cy="32.203" r="6.396" fill="#ee5490"/><path fill="#1f212b" d="M64.103,39.099c-3.802,0-6.896-3.094-6.896-6.896s3.094-6.896,6.896-6.896	c3.537,0,6.484,2.648,6.857,6.161c0.025,0.242,0.038,0.486,0.038,0.734C70.998,36.005,67.904,39.099,64.103,39.099z M64.103,26.308	c-3.251,0-5.896,2.645-5.896,5.896s2.645,5.896,5.896,5.896s5.896-2.645,5.896-5.896c0-0.213-0.011-0.422-0.032-0.63	C69.647,28.571,67.127,26.308,64.103,26.308z"/></svg>