<svg xmlns="http://www.w3.org/2000/svg"  viewBox="0 0 100 100" width="400px" height="400px"><path fill="#b77748" d="M12.379,70.973c-1.853,0-3.692-0.805-4.951-2.355c-2.22-2.733-1.805-6.746,0.928-8.967l8.5-6.906 c2.727-2.22,6.746-1.805,8.967,0.928s1.805,6.746-0.928,8.967l-8.5,6.906C15.214,70.506,13.792,70.973,12.379,70.973z"/><path fill="#1f212b" d="M12.379,71.973c-2.233,0-4.32-0.993-5.728-2.725c-1.242-1.529-1.814-3.45-1.612-5.409 c0.203-1.959,1.156-3.723,2.686-4.965l8.5-6.906c1.525-1.241,3.444-1.812,5.403-1.612c1.962,0.201,3.728,1.155,4.971,2.686 c1.242,1.529,1.814,3.45,1.612,5.409c-0.203,1.959-1.156,3.723-2.686,4.965l-8.5,6.906C15.717,71.386,14.066,71.973,12.379,71.973z M20.862,52.316c-1.229,0-2.41,0.418-3.375,1.204l-8.501,6.907c-1.115,0.905-1.811,2.19-1.958,3.618 c-0.147,1.428,0.27,2.827,1.176,3.941c1.025,1.263,2.547,1.986,4.175,1.986c1.247,0,2.417-0.416,3.385-1.203l8.5-6.907 c1.115-0.905,1.811-2.19,1.958-3.618s-0.27-2.827-1.176-3.941c-0.906-1.115-2.192-1.811-3.623-1.958 C21.235,52.325,21.048,52.316,20.862,52.316z"/><path fill="#b77748" d="M87.62,71.972c-1.397,0-2.804-0.457-3.978-1.397l-10.625-8.5c-2.75-2.2-3.196-6.211-0.996-8.961 c2.202-2.748,6.215-3.194,8.961-0.996l10.625,8.5c2.75,2.2,3.196,6.211,0.996,8.961C91.343,71.152,89.49,71.972,87.62,71.972z"/><path fill="#1f212b" d="M87.62,72.972c-1.667,0-3.302-0.574-4.604-1.616l-10.625-8.499 c-3.175-2.541-3.691-7.191-1.152-10.367c2.545-3.174,7.196-3.688,10.367-1.151l10.625,8.499c1.538,1.231,2.506,2.987,2.724,4.945 c0.218,1.957-0.341,3.883-1.571,5.422C91.975,71.963,89.874,72.972,87.62,72.972z M77.007,51.725c-1.578,0-3.144,0.689-4.206,2.015 c-1.85,2.313-1.474,5.703,0.841,7.556l10.625,8.499c0.962,0.771,2.122,1.178,3.354,1.178c1.644,0,3.175-0.735,4.202-2.018 c1.851-2.313,1.474-5.703-0.841-7.555l-10.625-8.5C79.369,52.109,78.185,51.725,77.007,51.725z"/><path fill="#b77748" d="M29.237,88.973c-2.718,0-4.733-2.527-4.129-5.188c1.134-5,2.742-11.812,3.077-11.812 c0.529,0,14.816,6.375,14.816,6.375l-5.117,8.562c-0.765,1.28-2.143,2.063-3.63,2.063H29.237z"/><path fill="#1f212b" d="M34.254,89.973h-5.018c-1.6,0-3.089-0.717-4.088-1.968c-1.001-1.254-1.372-2.873-1.017-4.441 c2.858-12.591,3.041-12.591,4.053-12.591c0.259,0,0.741,0,15.223,6.462c0.262,0.116,0.46,0.339,0.546,0.611 c0.087,0.272,0.052,0.569-0.095,0.814l-5.116,8.562C37.802,88.995,36.082,89.973,34.254,89.973z M28.732,73.225 c-0.337,1.089-1.074,3.841-2.649,10.781c-0.221,0.972,0.009,1.975,0.629,2.751c0.616,0.772,1.537,1.216,2.524,1.216h5.018 c1.128,0,2.19-0.604,2.771-1.577l4.538-7.593C37.088,76.812,30.909,74.097,28.732,73.225z"/><path fill="#b77748" d="M56,78.259l4.582,7.593c1.168,1.936,3.273,3.121,5.544,3.121h3.556c2.863,0,4.931-2.725,4.144-5.463 l-2.74-9.537L56,78.259z"/><path fill="#1f212b" d="M69.681,89.973h-3.556c-2.606,0-5.059-1.381-6.399-3.604l-4.582-7.593 c-0.161-0.267-0.188-0.594-0.074-0.884c0.114-0.289,0.357-0.51,0.657-0.595l15.085-4.286c0.53-0.151,1.082,0.156,1.234,0.686 l2.74,9.537c0.461,1.604,0.148,3.289-0.857,4.624C72.917,89.202,71.368,89.973,69.681,89.973z M57.532,78.863l3.906,6.472 c0.981,1.627,2.777,2.638,4.687,2.638h3.556c1.054,0,2.02-0.48,2.651-1.318c0.624-0.828,0.817-1.874,0.532-2.868l-2.465-8.579 L57.532,78.863z"/><path fill="#eaa871" d="M86,55.259c0-16.569-16.118-34.286-36-34.286S14,38.69,14,55.259s16.118,25.714,36,25.714 S86,71.827,86,55.259z"/><path fill="#1f212b" d="M50,81.973c-22.131,0-37-10.735-37-26.714c0-16.656,15.823-35.286,37-35.286s37,18.63,37,35.286 C87,71.237,72.131,81.973,50,81.973z M50,21.973c-19.711,0-35,17.894-35,33.286c0,17.072,17.579,24.714,35,24.714 s35-7.642,35-24.714C85,39.866,69.711,21.973,50,21.973z"/><path fill="#1f212b" d="M81.5,55.759c-0.276,0-0.5-0.224-0.5-0.5c0-8.954-5.936-18.769-14.77-24.422 c-0.232-0.148-0.301-0.458-0.151-0.69c0.148-0.234,0.46-0.3,0.69-0.151C75.879,35.824,82,45.978,82,55.259 C82,55.535,81.776,55.759,81.5,55.759z"/><path fill="#1f212b" d="M63.5,29.211c-0.075,0-0.151-0.017-0.224-0.053c-2.216-1.108-4.533-1.939-6.887-2.472 c-0.27-0.061-0.438-0.328-0.377-0.598c0.061-0.27,0.324-0.443,0.598-0.377c2.433,0.549,4.825,1.408,7.113,2.552 c0.247,0.124,0.347,0.424,0.224,0.671C63.859,29.11,63.683,29.211,63.5,29.211z"/><path fill="#1f212b" d="M53.501,26.182c-0.021,0-0.04-0.001-0.061-0.004c-1.135-0.136-2.292-0.205-3.44-0.205 c-0.276,0-0.5-0.224-0.5-0.5s0.224-0.5,0.5-0.5c1.188,0,2.386,0.071,3.56,0.213c0.274,0.032,0.47,0.281,0.437,0.556 C53.966,25.995,53.75,26.182,53.501,26.182z"/><g><circle cx="39" cy="46.973" r="4.5" fill="#444445"/><path fill="#1f212b" d="M39,51.973c-2.757,0-5-2.243-5-5s2.243-5,5-5s5,2.243,5,5S41.757,51.973,39,51.973z M39,42.973 c-2.206,0-4,1.794-4,4s1.794,4,4,4s4-1.794,4-4S41.206,42.973,39,42.973z"/></g><g><circle cx="61" cy="46.973" r="4.5" fill="#444445"/><path fill="#1f212b" d="M61,51.973c-2.757,0-5-2.243-5-5s2.243-5,5-5s5,2.243,5,5S63.757,51.973,61,51.973z M61,42.973 c-2.206,0-4,1.794-4,4s1.794,4,4,4s4-1.794,4-4S63.206,42.973,61,42.973z"/></g><g><path fill="#444445" d="M45.498,41.473c-0.437,0-0.879-0.143-1.248-0.437l-10-8c-0.861-0.691-1.002-1.949-0.312-2.812 c0.691-0.859,1.949-1.004,2.812-0.312l10,8c0.861,0.691,1.002,1.949,0.312,2.812C46.666,41.215,46.086,41.473,45.498,41.473z"/><path fill="#1f212b" d="M45.498,41.973c-0.564,0-1.119-0.194-1.561-0.547l-10-8c-1.074-0.863-1.25-2.439-0.391-3.516 c0.864-1.073,2.44-1.251,3.516-0.391l10,8c1.074,0.863,1.25,2.439,0.391,3.516C46.973,41.632,46.261,41.973,45.498,41.973z M35.504,29.974c-0.441,0-0.879,0.192-1.177,0.562c-0.515,0.645-0.409,1.591,0.236,2.109l9.999,7.999 c0.627,0.501,1.607,0.393,2.11-0.235c0.515-0.645,0.409-1.591-0.236-2.109l-9.999-7.999C36.162,30.08,35.832,29.974,35.504,29.974z"/></g><g><path fill="#b77748" d="M29.5,55.473l43,2.338c0,0-1.075,5.845-4.3,8.184c-6,4.35-30.638,2.338-34.4-1.169 C30.038,61.318,29.5,55.473,29.5,55.473z"/><path fill="#1f212b" d="M54.515,69.006c-8.909,0-18.777-1.69-21.056-3.814c-3.858-3.596-4.435-9.427-4.457-9.673 c-0.013-0.145,0.037-0.288,0.138-0.393c0.101-0.105,0.226-0.172,0.388-0.152l43,2.338c0.144,0.008,0.276,0.077,0.365,0.189 c0.089,0.113,0.125,0.259,0.1,0.4c-0.046,0.246-1.15,6.07-4.498,8.498C65.928,68.26,60.432,69.006,54.515,69.006z M30.077,56.005 c0.247,1.53,1.165,5.753,4.063,8.454c3.547,3.308,27.778,5.475,33.766,1.13c2.457-1.78,3.623-5.827,3.979-7.311L30.077,56.005z"/></g><g><path fill="#fefdef" d="M43.5,56.473v2.862c0,1.214,0.766,2.249,1.81,2.449l8.667,1.655 c1.321,0.252,2.523-0.915,2.523-2.449v-3.896L43.5,56.473z"/><path fill="#1f212b" d="M54.342,63.974c-0.151,0-0.305-0.015-0.458-0.044l-8.667-1.655C43.933,62.029,43,60.793,43,59.335 v-2.862c0-0.137,0.056-0.268,0.155-0.362c0.099-0.095,0.226-0.151,0.368-0.137l13,0.621C56.79,56.608,57,56.827,57,57.094v3.896 c0,0.957-0.394,1.831-1.081,2.399C55.455,63.773,54.907,63.974,54.342,63.974z M44,56.997v2.338c0,0.979,0.591,1.802,1.404,1.957 l8.667,1.655c0.424,0.079,0.855-0.036,1.21-0.329C55.731,62.246,56,61.637,56,60.989V57.57L44,56.997z"/></g><path fill="#1f212b" d="M65,39.973h-8c-0.553,0-1-0.447-1-1s0.447-1,1-1h8c0.553,0,1,0.447,1,1S65.553,39.973,65,39.973z"/></svg>