<svg xmlns="http://www.w3.org/2000/svg"  viewBox="0 0 100 100" width="400px" height="400px"><ellipse cx="26.015" cy="33.445" fill="#444445" rx="17.5" ry="9.388" transform="rotate(-67.04 26.013 33.444)"/><path fill="#1f212b" d="M21.292,50.977c-0.871,0-1.708-0.165-2.494-0.498c-2.664-1.129-4.34-4.019-4.718-8.139 c-0.358-3.896,0.483-8.494,2.37-12.947c4.049-9.553,11.43-15.254,16.782-12.982c5.363,2.273,6.395,11.536,2.348,21.087 c-1.887,4.454-4.604,8.258-7.653,10.711C25.655,50.036,23.373,50.977,21.292,50.977z M30.748,17.917 c-4.088,0-9.411,5.07-12.456,12.256c-1.761,4.154-2.549,8.411-2.221,11.984c0.308,3.351,1.554,5.652,3.507,6.479 c1.957,0.83,4.475,0.122,7.095-1.987c2.796-2.25,5.306-5.777,7.065-9.932c3.489-8.235,2.9-16.691-1.286-18.466 C31.919,18.026,31.347,17.917,30.748,17.917z"/><ellipse cx="73.985" cy="33.445" fill="#444445" rx="9.388" ry="17.5" transform="rotate(-22.96 73.992 33.446)"/><path fill="#1f212b" d="M78.708,50.977c-2.081,0-4.363-0.94-6.635-2.769c-3.049-2.453-5.767-6.257-7.653-10.711 c-4.047-9.551-3.016-18.813,2.347-21.087c5.366-2.267,12.735,3.43,16.783,12.981c1.887,4.454,2.729,9.053,2.37,12.948 c-0.378,4.12-2.054,7.01-4.719,8.139C80.416,50.812,79.579,50.977,78.708,50.977z M69.251,17.917c-0.598,0-1.169,0.108-1.704,0.335 c-4.186,1.774-4.774,10.23-1.285,18.466c1.76,4.154,4.27,7.682,7.065,9.932c2.621,2.109,5.142,2.818,7.094,1.987 c1.954-0.827,3.2-3.129,3.508-6.479c0.328-3.573-0.46-7.83-2.221-11.985C78.664,22.988,73.34,17.917,69.251,17.917z"/><circle cx="30" cy="78.973" r="5" fill="#fefdef"/><path fill="#1f212b" d="M30,84.973c-3.309,0-6-2.691-6-6s2.691-6,6-6s6,2.691,6,6S33.309,84.973,30,84.973z M30,74.973 c-2.206,0-4,1.794-4,4s1.794,4,4,4s4-1.794,4-4S32.206,74.973,30,74.973z"/><path fill="#f8e55b" d="M25,78.973c0-7.125,4-15.437,7-19c1.75,0,3,0,3,0v19H25z"/><path fill="#1f212b" d="M36,79.973H24v-1c0-7.623,4.23-16.076,7.235-19.645l0.3-0.355H36V79.973z M26.026,77.973H34v-17 h-1.524C29.893,64.25,26.364,71.431,26.026,77.973z"/><circle cx="70" cy="78.973" r="5" fill="#fefdef"/><path fill="#1f212b" d="M70,84.973c-3.309,0-6-2.691-6-6s2.691-6,6-6s6,2.691,6,6S73.309,84.973,70,84.973z M70,74.973 c-2.206,0-4,1.794-4,4s1.794,4,4,4s4-1.794,4-4S72.206,74.973,70,74.973z"/><path fill="#f8e55b" d="M75,78.973c0-7.125-4-15.438-7-19c-1.75,0-3,0-3,0v19H75z"/><path fill="#1f212b" d="M76,79.973H64v-21h4.465l0.3,0.355C71.77,62.897,76,71.35,76,78.973V79.973z M66,77.973h7.974 c-0.338-6.542-3.866-13.723-6.449-17H66V77.973z"/><path fill="#f8e55b" d="M64.903,92.973C67.461,88.501,69,82.865,69,76.723C69,62.225,60.493,50,50,50S31,62.225,31,76.723 c0,6.142,1.539,11.778,4.097,16.25H64.903z"/><path fill="#1f212b" d="M65.483,93.973H34.517l-0.288-0.504C31.462,88.633,30,82.842,30,76.723C30,61.437,38.972,49,50,49 s20,12.437,20,27.723c0,6.119-1.462,11.91-4.229,16.746L65.483,93.973z M35.684,91.973h28.633C66.728,87.541,68,82.282,68,76.723 C68,62.779,59.757,51,50,51S32,62.779,32,76.723C32,82.282,33.272,87.541,35.684,91.973z"/><path fill="#f8e55b" d="M64.799,92.973c0.913,0,1.772-0.471,2.214-1.256c1.091-1.938,1.737-4.306,1.737-6.869 c0-6.558-4.197-11.875-9.375-11.875S50,78.289,50,84.848c0,2.563,0.645,4.93,1.737,6.869c0.442,0.786,1.301,1.256,2.214,1.256 H64.799z"/><path fill="#1f212b" d="M64.799,93.973H53.951c-1.291,0-2.474-0.677-3.086-1.767C49.645,90.039,49,87.495,49,84.848 c0-7.1,4.654-12.875,10.375-12.875S69.75,77.748,69.75,84.848c0,2.647-0.645,5.191-1.865,7.358 C67.272,93.296,66.09,93.973,64.799,93.973z M59.375,73.973c-4.618,0-8.375,4.879-8.375,10.875c0,2.304,0.556,4.51,1.607,6.378 c0.26,0.461,0.774,0.747,1.344,0.747h10.848c0.569,0,1.084-0.286,1.344-0.747c1.052-1.868,1.607-4.074,1.607-6.378 C67.75,78.852,63.993,73.973,59.375,73.973z"/><path fill="#f8e55b" d="M45.996,92.973c0.925,0,1.795-0.471,2.244-1.256C49.346,89.778,50,87.41,50,84.848 c0-6.558-4.253-11.875-9.5-11.875S31,78.289,31,84.848c0,2.563,0.654,4.93,1.76,6.869c0.448,0.786,1.318,1.256,2.244,1.256H45.996z"/><path fill="#1f212b" d="M45.996,93.973H35.004c-1.301,0-2.493-0.675-3.113-1.762C30.654,90.043,30,87.497,30,84.848 c0-7.1,4.71-12.875,10.5-12.875S51,77.748,51,84.848c0,2.649-0.654,5.195-1.892,7.363C48.489,93.298,47.297,93.973,45.996,93.973z M40.5,73.973c-4.687,0-8.5,4.879-8.5,10.875c0,2.302,0.563,4.506,1.628,6.373c0.265,0.464,0.792,0.752,1.376,0.752h10.992 c0.584,0,1.111-0.288,1.375-0.752C48.437,89.354,49,87.15,49,84.848C49,78.852,45.187,73.973,40.5,73.973z"/><path fill="#1f212b" d="M53,73.973c-0.553,0-1-0.447-1-1v-9c0-0.553,0.447-1,1-1s1,0.447,1,1v9	C54,73.526,53.553,73.973,53,73.973z"/><circle cx="53" cy="73.973" r="1.5" fill="#f5905f"/><path fill="#1f212b" d="M53,75.973c-1.103,0-2-0.897-2-2s0.897-2,2-2s2,0.897,2,2S54.103,75.973,53,75.973z M53,72.973 c-0.552,0-1,0.448-1,1s0.448,1,1,1s1-0.448,1-1S53.552,72.973,53,72.973z"/><path fill="#f8e55b" d="M75.609,38.259C76.506,35.969,77,33.521,77,30.973c0-12.703-12.088-23-27-23s-27,10.297-27,23 c0,2.548,0.494,4.996,1.391,7.287C22.229,40.709,21,43.504,21,46.473c0,9.665,12.984,17.5,29,17.5s29-7.835,29-17.5 C79,43.504,77.771,40.709,75.609,38.259z"/><path fill="#1f212b" d="M50,64.973c-16.542,0-30-8.299-30-18.5c0-2.931,1.121-5.828,3.248-8.413 C22.42,35.762,22,33.381,22,30.973c0-13.233,12.561-24,28-24s28,10.767,28,24c0,2.408-0.42,4.789-1.248,7.087 C78.879,40.645,80,43.542,80,46.473C80,56.674,66.542,64.973,50,64.973z M50,8.973c-14.337,0-26,9.869-26,22 c0,2.355,0.445,4.684,1.322,6.921l0.224,0.568l-0.404,0.459C23.057,41.282,22,43.823,22,46.473c0,9.098,12.561,16.5,28,16.5 s28-7.402,28-16.5c0-2.649-1.057-5.19-3.142-7.552l-0.404-0.459l0.224-0.568C75.555,35.656,76,33.328,76,30.973 C76,18.842,64.337,8.973,50,8.973z"/><g><path fill="#1f212b" d="M72.5,31.973c-0.276,0-0.5-0.224-0.5-0.5c0-5.158-2.661-10.124-7.301-13.626 c-0.221-0.167-0.265-0.48-0.099-0.7c0.168-0.222,0.481-0.263,0.7-0.099C70.194,20.741,73,25.998,73,31.473 C73,31.749,72.776,31.973,72.5,31.973z"/><path fill="#1f212b" d="M62.25,16.166c-0.082,0-0.165-0.02-0.241-0.062c-1.894-1.045-3.955-1.843-6.127-2.373 c-0.269-0.065-0.433-0.335-0.367-0.604c0.065-0.268,0.333-0.433,0.604-0.367c2.259,0.55,4.403,1.381,6.373,2.469 c0.242,0.133,0.33,0.438,0.196,0.679C62.597,16.073,62.426,16.166,62.25,16.166z"/><path fill="#1f212b" d="M53.001,13.193c-0.021,0-0.042-0.001-0.063-0.004c-1.131-0.144-2.288-0.216-3.438-0.216 c-0.276,0-0.5-0.224-0.5-0.5s0.224-0.5,0.5-0.5c1.191,0,2.391,0.075,3.562,0.224c0.274,0.035,0.468,0.285,0.434,0.559 C53.464,13.008,53.249,13.193,53.001,13.193z"/></g><g><path fill="#fefdef" d="M70.5,41.917c0-9.665-9.178-19.444-20.5-19.444s-20.5,9.779-20.5,19.444S38.678,57.473,50,57.473 S70.5,51.582,70.5,41.917z"/><path fill="#1f212b" d="M50,57.973c-12.364,0-21-6.603-21-16.056c0-9.415,8.98-19.944,21-19.944s21,10.529,21,19.944 C71,51.37,62.364,57.973,50,57.973z M50,22.973c-11.447,0-20,10.002-20,18.944c0,8.864,8.225,15.056,20,15.056s20-6.191,20-15.056 C70,32.975,61.447,22.973,50,22.973z"/></g><path fill="#1f212b" d="M47,70.973c-0.553,0-1-0.447-1-1v-6c0-0.553,0.447-1,1-1s1,0.447,1,1v6	C48,70.526,47.553,70.973,47,70.973z"/><g><circle cx="45" cy="37.473" r="2" fill="#444445"/><path fill="#1f212b" d="M45,39.973c-1.379,0-2.5-1.121-2.5-2.5s1.121-2.5,2.5-2.5s2.5,1.121,2.5,2.5 S46.379,39.973,45,39.973z M45,35.973c-0.827,0-1.5,0.673-1.5,1.5s0.673,1.5,1.5,1.5s1.5-0.673,1.5-1.5S45.827,35.973,45,35.973z"/></g><g><circle cx="55" cy="37.473" r="2" fill="#444445"/><path fill="#1f212b" d="M55,39.973c-1.379,0-2.5-1.121-2.5-2.5s1.121-2.5,2.5-2.5s2.5,1.121,2.5,2.5 S56.379,39.973,55,39.973z M55,35.973c-0.827,0-1.5,0.673-1.5,1.5s0.673,1.5,1.5,1.5s1.5-0.673,1.5-1.5S55.827,35.973,55,35.973z"/></g><g><path fill="#444445" d="M52.5,41.973c0-1.105-1.395-2.5-2.5-2.5s-2.5,1.395-2.5,2.5c0,1.105,1.395,1.5,2.5,1.5 S52.5,43.077,52.5,41.973z"/><path fill="#1f212b" d="M50,43.973c-1.493,0-3-0.618-3-2c0-1.374,1.626-3,3-3s3,1.626,3,3 C53,43.355,51.493,43.973,50,43.973z M50,39.973c-0.822,0-2,1.178-2,2c0,0.733,1.196,1,2,1s2-0.267,2-1 C52,41.151,50.822,39.973,50,39.973z"/></g><path fill="#1f212b" d="M43.999,47.973c-0.489,0-0.917-0.359-0.989-0.858c-0.078-0.546,0.302-1.053,0.849-1.132l13.998-1.999	c0.545-0.093,1.054,0.298,1.133,0.846c0.08,0.547-0.299,1.054-0.846,1.133l-14.002,2.001C44.094,47.97,44.046,47.973,43.999,47.973z"/><g><path fill="#f27e97" d="M56,45.263v2.71c0,1.66-1.34,3-3,3s-3-1.34-3-3v-1.86L56,45.263z"/><path fill="#1f212b" d="M53,51.973c-2.206,0-4-1.794-4-4v-1.86c0-0.498,0.366-0.92,0.859-0.99l6-0.85 c0.285-0.042,0.578,0.045,0.796,0.235C56.874,44.697,57,44.973,57,45.263v2.71C57,50.179,55.206,51.973,53,51.973z M51,46.981 v0.992c0,1.103,0.897,2,2,2s2-0.897,2-2v-1.559L51,46.981z"/></g><path fill="#1f212b" d="M53,48.973c-0.276,0-0.5-0.224-0.5-0.5v-2.5c0-0.276,0.224-0.5,0.5-0.5s0.5,0.224,0.5,0.5v2.5	C53.5,48.749,53.276,48.973,53,48.973z"/><g><circle cx="47" cy="70.973" r="1.5" fill="#f5905f"/><path fill="#1f212b" d="M47,72.973c-1.103,0-2-0.897-2-2s0.897-2,2-2s2,0.897,2,2S48.103,72.973,47,72.973z M47,69.973 c-0.552,0-1,0.448-1,1s0.448,1,1,1s1-0.448,1-1S47.552,69.973,47,69.973z"/></g></svg>