<svg xmlns="http://www.w3.org/2000/svg"  viewBox="0 0 100 100" width="400px" height="400px" baseProfile="basic"><path fill="#60be92" d="M71.167,64.179C70.002,61.539,67.272,58,61,58c-6.065,0-8.782,3.649-9.836,7.593 C50.245,61.622,49.622,56.669,50,51c-3-1-6,0-6,0s-0.108,4.956,1.271,11.09C42.798,59.744,39.521,57.448,34,58 c-7.036,0.704-8,5-8,5s5.721-1.903,5.987,5.463C28.843,69.224,26.018,70.693,24,73c-7,8,2,16,2,16s-2-7,5-7c5,0,6,4,13,4 c6.781,0,9.296-2.813,10.093-5.714C54.87,83.548,56.98,86,60,86c8,0,7-9,13-9s5,6,5,6C81.744,79.256,81.106,65.875,71.167,64.179z"/><path fill="#1f212b" d="M25.999,89.999c-0.238,0-0.475-0.085-0.663-0.252c-0.097-0.086-9.654-8.759-2.088-17.405 c1.869-2.136,4.514-3.729,7.686-4.635c-0.172-1.658-0.693-2.801-1.554-3.405c-1.292-0.906-3.052-0.356-3.069-0.351 c-0.339,0.11-0.717,0.03-0.982-0.213c-0.265-0.242-0.382-0.606-0.304-0.956c0.045-0.204,1.21-5.01,8.876-5.776 c4.407-0.438,7.523,0.86,9.847,2.513c-0.815-4.818-0.751-8.365-0.747-8.54c0.01-0.422,0.283-0.793,0.684-0.927 c0.136-0.045,3.352-1.095,6.633,0c0.432,0.144,0.712,0.561,0.682,1.015c-0.248,3.716-0.078,7.42,0.504,11.051 C53.422,58.792,56.698,57,61,57c6.61,0,9.593,3.742,10.856,6.293c4.106,0.882,7.115,3.742,8.504,8.105 c1.443,4.532,0.717,9.938-1.653,12.309c-0.309,0.309-0.779,0.38-1.165,0.183c-0.386-0.199-0.6-0.625-0.528-1.054 c0.003-0.02,0.347-2.274-0.841-3.666C75.511,78.394,74.443,78,73,78c-2.138,0-3.139,1.355-4.595,3.566 C66.811,83.987,64.826,87,60,87c-2.566,0-4.734-1.511-6.017-4.071C52.53,85.103,49.645,87,44,87c-4.062,0-6.253-1.268-8.187-2.386 C34.315,83.748,33.021,83,31,83c-1.683,0-2.876,0.448-3.546,1.331c-1.244,1.641-0.5,4.369-0.492,4.396 c0.12,0.428-0.056,0.884-0.433,1.119C26.366,89.949,26.182,89.999,25.999,89.999z M27.78,61.786c0.844,0.031,1.83,0.24,2.729,0.865 c1.544,1.072,2.377,3.015,2.477,5.776c0.018,0.475-0.302,0.896-0.764,1.008c-3.133,0.759-5.716,2.219-7.47,4.224 c-4.288,4.901-1.979,9.78,0.02,12.474c0.092-0.996,0.385-2.077,1.081-3C26.92,81.718,28.652,81,31,81 c2.559,0,4.214,0.957,5.814,1.883C38.614,83.924,40.475,85,44,85c5.149,0,8.221-1.675,9.129-4.979 c0.119-0.435,0.515-0.735,0.964-0.735c0.006,0,0.012,0,0.017,0c0.457,0.008,0.851,0.324,0.956,0.769C55.636,82.445,57.23,85,60,85 c3.748,0,5.199-2.202,6.734-4.534C68.113,78.373,69.677,76,73,76c2.062,0,3.646,0.634,4.706,1.885 c0.46,0.544,0.77,1.149,0.975,1.752c0.588-2.079,0.65-4.88-0.226-7.632c-0.7-2.199-2.6-6.012-7.456-6.84 c-0.331-0.057-0.611-0.275-0.747-0.582C69.128,62.036,66.61,59,61,59c-4.671,0-7.655,2.305-8.87,6.851 c-0.118,0.444-0.509,0.732-0.982,0.742c-0.459-0.008-0.854-0.327-0.958-0.774c-1.062-4.586-1.478-9.316-1.235-14.07 c-1.583-0.348-3.104-0.147-3.95,0.028c0.03,1.593,0.217,5.53,1.243,10.095c0.097,0.429-0.099,0.872-0.481,1.089 c-0.383,0.216-0.864,0.158-1.183-0.144c-2.296-2.179-5.338-4.337-10.483-3.821C30.483,59.356,28.669,60.705,27.78,61.786z"/><path fill="#60be92" d="M30,30c1.702-12.132-23.793-9.264-15,6c1.277-4.915,5.56-5.247,8-3 C25.149,34.979,29.427,34.083,30,30z"/><path fill="#1f212b" d="M15,37c-0.354,0-0.686-0.188-0.866-0.501c-3.615-6.275-1.5-10.089,0.083-11.804 c2.933-3.179,8.64-4.193,12.723-2.26c3.059,1.449,4.536,4.256,4.052,7.704c-0.31,2.208-1.592,3.871-3.518,4.56 c-1.794,0.642-3.817,0.265-5.15-0.963c-1.008-0.928-2.372-1.287-3.563-0.938c-1.323,0.389-2.314,1.616-2.792,3.453 c-0.102,0.393-0.432,0.685-0.834,0.74C15.089,36.997,15.044,37,15,37z M22.331,23.454c-2.524,0-5.106,0.93-6.646,2.598 c-1.757,1.905-2.015,4.476-0.776,7.514c0.786-1.352,1.91-2.28,3.285-2.686c1.86-0.545,3.96-0.017,5.483,1.385 c0.793,0.73,2.017,0.946,3.122,0.552c0.707-0.253,1.933-0.973,2.211-2.955l0,0c0.46-3.28-1.338-4.865-2.927-5.618 C24.953,23.708,23.65,23.454,22.331,23.454z"/><ellipse cx="46.5" cy="49.5" fill="#60be92" rx="6.5" ry="4.5"/><path fill="#1f212b" d="M46.5,55c-4.206,0-7.5-2.416-7.5-5.5s3.294-5.5,7.5-5.5s7.5,2.416,7.5,5.5S50.706,55,46.5,55z M46.5,46c-2.981,0-5.5,1.603-5.5,3.5s2.519,3.5,5.5,3.5s5.5-1.603,5.5-3.5S49.481,46,46.5,46z"/><path fill="#60be92" d="M77,14c-2.165,0-4.79,1.727-6.23,4.52c-3.716,5.005-10.106,3.588-14.187,2.192 C53.558,19,49.918,18,46,18c-10.493,0-19,7.163-19,16s8.507,16,19,16c5.855,0,11.087-2.233,14.572-5.74 c5.95-4.362,9.647-2.577,10.789-1.741C72.728,44.693,75.119,46,77,46c4.418,0,8-7.163,8-16S81.418,14,77,14z"/><path fill="#1f212b" d="M46,51c-11.028,0-20-7.626-20-17s8.972-17,20-17c3.928,0,7.727,0.966,10.993,2.795 c6.19,2.1,10.42,1.505,12.927-1.81C71.468,15.046,74.368,13,77,13c5.047,0,9,7.467,9,17s-3.953,17-9,17 c-2.297,0-4.889-1.542-6.372-3.772c-1.021-0.674-4.154-2.025-9.403,1.794C57.415,48.822,51.87,51,46,51z M46,19 c-9.925,0-18,6.729-18,15s8.075,15,18,15c5.371,0,10.424-1.985,13.863-5.445c0.036-0.037,0.076-0.071,0.118-0.102 c6.656-4.88,10.846-2.564,11.971-1.74c0.103,0.075,0.188,0.168,0.256,0.274C73.451,43.965,75.56,45,77,45c3.794,0,7-6.869,7-15 s-3.206-15-7-15c-1.635,0-3.995,1.366-5.342,3.978c-0.024,0.048-0.054,0.094-0.086,0.138c-3.058,4.118-8.211,4.97-15.312,2.542 c-0.059-0.02-0.115-0.045-0.169-0.076C53.105,19.893,49.616,19,46,19z"/><ellipse cx="50" cy="28" fill="#444445" rx="2.5" ry="3.5"/><path fill="#1f212b" d="M50,32c-1.654,0-3-1.794-3-4s1.346-4,3-4s3,1.794,3,4S51.654,32,50,32z M50,25c-1.084,0-2,1.374-2,3 s0.916,3,2,3s2-1.374,2-3S51.084,25,50,25z"/><ellipse cx="57.5" cy="24.5" fill="#444445" rx="2" ry="3"/><path fill="#1f212b" d="M57.5,28c-1.402,0-2.5-1.538-2.5-3.5s1.098-3.5,2.5-3.5s2.5,1.538,2.5,3.5S58.902,28,57.5,28z M57.5,22c-0.813,0-1.5,1.145-1.5,2.5s0.687,2.5,1.5,2.5s1.5-1.145,1.5-2.5S58.313,22,57.5,22z"/><ellipse cx="77" cy="30" fill="#444445" rx="4.5" ry="11.5"/><path fill="#1f212b" d="M77,42c-2.804,0-5-5.271-5-12s2.196-12,5-12s5,5.271,5,12S79.804,42,77,42z M77,19 c-1.892,0-4,4.518-4,11s2.108,11,4,11s4-4.518,4-11S78.892,19,77,19z"/><path fill="#1f212b" d="M53.5,81c-0.066,0-0.134-0.013-0.198-0.041c-0.253-0.109-0.37-0.403-0.261-0.657 c0.833-1.933,0.858-4.877-1.057-6.772c-1.422-1.408-5.039-3.224-13.282,0.428c-0.249,0.111-0.547,0-0.659-0.255 c-0.112-0.252,0.002-0.548,0.255-0.659c8.786-3.893,12.786-1.812,14.391-0.225c2.247,2.226,2.234,5.645,1.271,7.88 C53.878,80.887,53.693,81,53.5,81z"/><path fill="#1f212b" d="M49.5,71.999c-0.15,0-0.3-0.067-0.397-0.196c-0.04-0.05-4.003-5.062-13.691-3.142 c-0.271,0.055-0.534-0.122-0.588-0.393s0.122-0.534,0.394-0.587c10.334-2.048,14.51,3.291,14.682,3.518 c0.167,0.22,0.123,0.532-0.096,0.699C49.712,71.966,49.605,71.999,49.5,71.999z"/><path fill="#1f212b" d="M71.235,65.096c-0.033,0-0.066-0.003-0.1-0.01c-2.361-0.476-4.609-0.541-6.683-0.196 c-0.267,0.049-0.529-0.139-0.575-0.411c-0.045-0.272,0.139-0.53,0.411-0.575c2.191-0.365,4.562-0.296,7.044,0.202 c0.271,0.054,0.446,0.318,0.392,0.589C71.677,64.932,71.468,65.096,71.235,65.096z"/><g><path fill="#1f212b" d="M52.724,73.841c-0.065,0-0.131-0.013-0.194-0.039c-0.255-0.107-0.374-0.401-0.267-0.655 c0.097-0.229,2.44-5.647,8.429-8.199c0.255-0.109,0.548,0.01,0.656,0.264c0.108,0.254-0.01,0.547-0.264,0.656 c-5.62,2.395-7.878,7.615-7.899,7.667C53.104,73.727,52.918,73.841,52.724,73.841z"/></g><g><path fill="#1f212b" d="M48.574,71.287c-0.191,0-0.375-0.111-0.457-0.298c-0.747-1.688-1.437-3.603-2.05-5.689 c-0.078-0.265,0.073-0.543,0.339-0.621c0.263-0.08,0.543,0.074,0.62,0.338c0.602,2.045,1.276,3.918,2.005,5.567 c0.112,0.252-0.002,0.548-0.255,0.66C48.711,71.273,48.642,71.287,48.574,71.287z"/></g><g><path fill="#1f212b" d="M53.409,71.974c-0.158,0-0.313-0.075-0.411-0.215c-0.769-1.11-1.39-2.211-1.898-3.367 c-0.111-0.252,0.004-0.547,0.257-0.659c0.253-0.11,0.547,0.003,0.659,0.256c0.481,1.096,1.072,2.142,1.805,3.2 c0.157,0.227,0.101,0.539-0.126,0.696C53.607,71.945,53.508,71.974,53.409,71.974z"/></g><g><path fill="#1f212b" d="M72.319,43.585c-0.157,0-0.312-0.075-0.41-0.214c-2.407-3.447-2.815-6.915-2.832-7.061 c-0.03-0.274,0.167-0.521,0.441-0.552c0.271-0.027,0.521,0.167,0.553,0.441c0.004,0.033,0.402,3.369,2.658,6.599 c0.158,0.226,0.103,0.538-0.124,0.696C72.519,43.556,72.419,43.585,72.319,43.585z"/></g><g><path fill="#1f212b" d="M45.927,46.503c-2.005,0-3.882-0.31-5.612-0.93c-0.26-0.093-0.395-0.379-0.302-0.639 c0.094-0.26,0.38-0.396,0.64-0.302c2.84,1.017,6.118,1.144,9.744,0.378c0.269-0.056,0.535,0.114,0.593,0.386 c0.057,0.271-0.116,0.536-0.386,0.593C48.979,46.332,47.417,46.503,45.927,46.503z"/></g><g><path fill="#1f212b" d="M38.057,44.464c-0.087,0-0.175-0.022-0.255-0.07c-1.669-0.989-3.116-2.297-4.302-3.889 c-0.165-0.222-0.119-0.535,0.103-0.7c0.22-0.165,0.533-0.12,0.7,0.102c1.105,1.485,2.454,2.705,4.009,3.626 c0.237,0.141,0.316,0.448,0.175,0.685C38.394,44.376,38.227,44.464,38.057,44.464z"/></g><g><path fill="#1f212b" d="M32.493,38.401c-0.185,0-0.363-0.103-0.449-0.281C31.39,36.779,31,35.425,31,34.5 c0-0.276,0.224-0.5,0.5-0.5s0.5,0.224,0.5,0.5c0,0.603,0.248,1.755,0.942,3.183c0.121,0.248,0.018,0.547-0.23,0.668 C32.642,38.385,32.567,38.401,32.493,38.401z"/></g></svg>