<svg xmlns="http://www.w3.org/2000/svg"  viewBox="0 0 100 100" width="400px" height="400px" baseProfile="basic"><path fill="#a9dde2" d="M56.264,73.708l8.899,9.455c0,0,4.399-0.86,5.764,0.91c1.365,1.77,1.213,5.208,1.213,5.208H53.534 l-5.056-8.798l3.185-5.157L56.264,73.708z"/><path fill="#a9dde2" d="M71.787,33.663c0,0,7.011,6.472,7.382,16.18h-2.36c0,0,0.438,8.427-2.157,11.764L73,60 c0,0-9.185,13.843-21.86,18.781l4.31,4.711c0,0,7.64-1.289,7.741,5.739l-23.157-0.556c0,0,0.556-2.983,3.034-5.461l-3.337-5.208 l19.989-37.433l4.719-5.933L71.787,33.663z"/><path fill="#a9dde2" d="M45.899,26.753c0,0-2.973,11.49,16.109,11.239C81.09,37.742,79,26.955,79,26.955 s-4.045-14.629-10.18-15.101c-6.135-0.472-5.596-1.348-11.798-0.472c-6.202,0.876-8.292,8.157-8.292,8.157L45.899,26.753z"/><path fill="#c4e7ed" d="M63.747,37.758c0,0,4.096,4.449,4.803,8.444c0.708,3.994,0.86,6.371,0.051,9.354 c-0.809,2.983-3.438,8.949-13.399,15.27c-9.961,6.32-25.011,15.657-39.438,18.152l-1.011-2.225l3.91-15.236l4.921-11.528 l4.719-9.64l6-8.764l6.674-6.202l4.382-2.292l1.707-0.358l2.068,3.054l5.461,1.82L63.747,37.758z"/><path fill="#c4e7ed" d="M81.006,24.663l-0.455-2.528l-1.213-2.629l1.062-1.062l-1.163-1.871l-3.489-2.579l-5.208-0.506 l-3.64,1.112c0,0-3.084,1.095-3.994,3.337c-0.145,0.358-0.438,1.483-0.438,1.483l-0.438-1.483l-1.618-2.073l-2.376-1.264 l-3.64-1.112l-5.208,0.506l-3.489,2.579l-1.163,1.871l1.062,1.062l-1.214,2.629l-0.455,2.528l2.427,1.011l-0.051,1.77 c0,0,0.708,5.006,6.32,5.006s8.393-3.994,8.393-3.994l1.449-1.788l1.449,1.788c0,0,1.989,3.826,7.601,3.826 c5.612,0,6.708-4.837,6.708-4.837l0.354-1.77L81.006,24.663z"/><path fill="#ffc467" d="M54.499,20.499c-0.632,0-1.204,0.144-1.712,0.349c-1.412,0.573-2.286,1.652-2.286,1.652 s0.721,4.004,4.359,4.004c1.465,0,2.956-1.012,3.635-2.002c0,0-0.295-1.119-1.005-2.175C56.861,21.389,55.906,20.499,54.499,20.499 z"/><path fill="#ffc467" d="M70.499,20.499c0.632,0,1.204,0.144,1.712,0.349c1.412,0.573,2.286,1.652,2.286,1.652 s-0.721,4.004-4.359,4.004c-1.465,0-2.956-1.012-3.635-2.002c0,0,0.295-1.119,1.005-2.175 C68.137,21.389,69.092,20.499,70.499,20.499z"/><path fill="#646566" d="M33.859,56.114c-1.205-1.199-0.86-3.584-0.861-3.584c-1.769,1.761-1.489,5.972-1.489,5.972 s4.322,0.157,5.984-1.498C37.49,57.006,35.072,57.32,33.859,56.114z"/><path fill="#646566" d="M39.87,62.124c-1.205-1.199-0.86-3.584-0.861-3.584c-1.769,1.761-1.489,5.972-1.489,5.972 s4.322,0.157,5.984-1.498C43.5,63.016,41.082,63.33,39.87,62.124z"/><path fill="#646566" d="M45.87,68.124c-1.205-1.199-0.86-3.584-0.861-3.584c-1.769,1.761-1.489,5.972-1.489,5.972 s4.322,0.157,5.984-1.498C49.5,69.016,47.082,69.33,45.87,68.124z"/><path fill="#646566" d="M30.87,65.124c-1.205-1.199-0.86-3.584-0.861-3.584c-1.769,1.761-1.489,5.972-1.489,5.972 s4.322,0.157,5.984-1.498C34.5,66.016,32.082,66.33,30.87,65.124z"/><path fill="#646566" d="M36.87,71.124c-1.205-1.199-0.86-3.584-0.861-3.584c-1.769,1.761-1.489,5.972-1.489,5.972 s4.322,0.157,5.984-1.498C40.5,72.016,38.082,72.33,36.87,71.124z"/><path fill="#646566" d="M26.87,74.124c-1.205-1.199-0.86-3.584-0.861-3.584c-1.769,1.761-1.489,5.972-1.489,5.972 s4.322,0.157,5.984-1.498C30.5,75.016,28.082,75.33,26.87,74.124z"/><path fill="#646566" d="M65.508,27.501c0,1.658-3.008,4.999-3.008,4.999s-2.996-3.341-2.996-4.999 c0-1.658,1.344-3.002,3.002-3.002S65.508,25.843,65.508,27.501z"/><path fill="#646566" d="M55.02,24.486c1.239,0,2.222-0.928,2.399-2.118c-0.615-0.915-1.547-1.782-2.92-1.782 c-0.617,0-1.175,0.14-1.67,0.34c-0.166,0.332-0.28,0.693-0.28,1.089C52.55,23.38,53.656,24.486,55.02,24.486z"/><path fill="#646566" d="M69.977,24.486c-1.239,0-2.222-0.928-2.399-2.118c0.615-0.915,1.547-1.782,2.92-1.782 c0.617,0,1.175,0.14,1.67,0.34c0.166,0.332,0.28,0.693,0.28,1.089C72.447,23.38,71.341,24.486,69.977,24.486z"/><path fill="#646566" d="M57.806,83.466v5.081h5.789C63.596,88.548,62.913,83.466,57.806,83.466z"/><path fill="#646566" d="M66.402,83.466v5.081h5.789C72.191,88.548,71.508,83.466,66.402,83.466z"/><path fill="none" stroke="#24262e" stroke-linecap="round" stroke-linejoin="round" stroke-miterlimit="10" stroke-width="2" d="M63.25,88.343c0-2.868-2.325-4.851-5.193-4.851H57.4h-1.95l-3.981-4.382c0,0,2.713-1.163,5.73-3.152"/><path fill="none" stroke="#24262e" stroke-linecap="round" stroke-linejoin="round" stroke-miterlimit="10" d="M67.182,42.656 c-0.807-1.603-1.84-3.072-3.056-4.367"/><path fill="none" stroke="#24262e" stroke-linecap="round" stroke-linejoin="round" stroke-miterlimit="10" d="M68.779,47.267 c-0.182-0.895-0.428-1.767-0.734-2.61"/><path fill="none" stroke="#24262e" stroke-linecap="round" stroke-linejoin="round" stroke-miterlimit="10" d="M62.292,65.368 c0,0-0.005-0.006-0.006-0.006c4.185-3.396,6.864-8.576,6.864-14.386c0-0.509-0.021-1.014-0.061-1.513"/><path fill="none" stroke="#24262e" stroke-linecap="round" stroke-linejoin="round" stroke-miterlimit="10" d="M59.722,67.534 c0.335-0.269,0.668-0.541,0.998-0.816"/><path fill="none" stroke="#24262e" stroke-linecap="round" stroke-linejoin="round" stroke-miterlimit="10" d="M40.054,79.742 c6.001-3.081,12.119-6.488,17.757-10.724"/><path fill="none" stroke="#24262e" stroke-linecap="round" stroke-linejoin="round" stroke-miterlimit="10" stroke-width="2" d="M47.066,32.732c-3.507,0.603-6.475,2.22-9.682,5.3c-0.004-0.004-0.015-0.016-0.018-0.019C23.621,52.761,15,79.349,15,89 c4.886,0,14.593-3.252,25.433-8.888"/><path fill="none" stroke="#24262e" stroke-linecap="round" stroke-linejoin="round" stroke-miterlimit="10" stroke-width="2" d="M57.269,75.93C62.449,72.494,70.865,66.404,73,60c0,0,1.978,2,2,2c1.428-2.942,2-8.468,2-12h2c0-7.274-3.115-11.533-5.395-13.714"/><line x1="57.5" x2="57.5" y1="88.5" y2="83.5" fill="none" stroke="#24262e" stroke-linecap="round" stroke-linejoin="round" stroke-miterlimit="10"/><line x1="66.5" x2="66.5" y1="83.5" y2="88.5" fill="none" stroke="#24262e" stroke-linecap="round" stroke-linejoin="round" stroke-miterlimit="10"/><path fill="none" stroke="#24262e" stroke-linecap="round" stroke-linejoin="round" stroke-miterlimit="10" stroke-width="2" d="M57.256,75.919l7.194,7.093h1.95h0.657c2.868,0,4.948,2.464,4.948,5.331V89H66.4h-9h-8.55H40c0,0,0-4,3.271-5.519l-2.839-3.297"/><path fill="none" stroke="#24262e" stroke-linecap="round" stroke-linejoin="round" stroke-miterlimit="10" stroke-width="2" d="M81,19c0,0-2.076-5.916-9.732-6.001C68.944,11.778,66.017,11,62.325,11c-3.692,0-6.598,0.768-8.921,1.99C45.75,13.076,44,19,44,19 h2c0,0-2,2.1-2,6h2c0,0.321,0,2.441,0,3c0,8.077,6.854,9.992,16.008,9.992S79,36.077,79,28c0-0.554,0-2.676,0-3h2c0-3.9-2-6-2-6H81 z"/><path fill="none" stroke="#24262e" stroke-linecap="round" stroke-linejoin="round" stroke-miterlimit="10" d="M53.55,32.466 c2.897,0,5.063-1.425,6.515-2.873"/><path fill="none" stroke="#24262e" stroke-linecap="round" stroke-linejoin="round" stroke-miterlimit="10" d="M45.75,24.65 c0,1.759,0.285,6.705,5.81,7.657"/><path fill="none" stroke="#24262e" stroke-linecap="round" stroke-linejoin="round" stroke-miterlimit="10" d="M63.837,16.717 c-0.688,0.801-1.173,1.735-1.337,2.783c-0.457-3.712-5.582-6.011-8.95-6.011"/><path fill="none" stroke="#24262e" stroke-linecap="round" stroke-linejoin="round" stroke-miterlimit="10" d="M71.103,13.489 c-1.808,0-3.992,0.66-5.714,1.85"/><path fill="none" stroke="#24262e" stroke-linecap="round" stroke-linejoin="round" stroke-miterlimit="10" d="M64.658,29.663 c1.452,1.424,3.594,2.803,6.444,2.803c7.449,0,7.8-5.866,7.8-7.816"/><path fill="none" stroke="#24262e" stroke-linecap="round" stroke-linejoin="round" stroke-miterlimit="10" d="M54.499,20.499 c-0.632,0-1.204,0.144-1.712,0.349c-1.412,0.573-2.286,1.652-2.286,1.652s0.721,4.004,4.359,4.004c1.465,0,2.956-1.012,3.635-2.002 c0,0-0.295-1.119-1.005-2.175C56.861,21.389,55.906,20.499,54.499,20.499z"/><path fill="none" stroke="#24262e" stroke-linecap="round" stroke-linejoin="round" stroke-miterlimit="10" d="M33.859,56.114 c-1.205-1.199-0.86-3.584-0.861-3.584c-1.769,1.761-1.489,5.972-1.489,5.972s4.322,0.157,5.984-1.498 C37.49,57.006,35.072,57.32,33.859,56.114z"/><path fill="none" stroke="#24262e" stroke-linecap="round" stroke-linejoin="round" stroke-miterlimit="10" d="M39.87,62.124 c-1.205-1.199-0.86-3.584-0.861-3.584c-1.769,1.761-1.489,5.972-1.489,5.972s4.322,0.157,5.984-1.498 C43.5,63.016,41.082,63.33,39.87,62.124z"/><path fill="none" stroke="#24262e" stroke-linecap="round" stroke-linejoin="round" stroke-miterlimit="10" d="M45.87,68.124 c-1.205-1.199-0.86-3.584-0.861-3.584c-1.769,1.761-1.489,5.972-1.489,5.972s4.322,0.157,5.984-1.498 C49.5,69.016,47.082,69.33,45.87,68.124z"/><path fill="none" stroke="#24262e" stroke-linecap="round" stroke-linejoin="round" stroke-miterlimit="10" d="M30.87,65.124 c-1.205-1.199-0.86-3.584-0.861-3.584c-1.769,1.761-1.489,5.972-1.489,5.972s4.322,0.157,5.984-1.498 C34.5,66.016,32.082,66.33,30.87,65.124z"/><path fill="none" stroke="#24262e" stroke-linecap="round" stroke-linejoin="round" stroke-miterlimit="10" d="M36.87,71.124 c-1.205-1.199-0.86-3.584-0.861-3.584c-1.769,1.761-1.489,5.972-1.489,5.972s4.322,0.157,5.984-1.498 C40.5,72.016,38.082,72.33,36.87,71.124z"/><path fill="none" stroke="#24262e" stroke-linecap="round" stroke-linejoin="round" stroke-miterlimit="10" d="M26.87,74.124 c-1.205-1.199-0.86-3.584-0.861-3.584c-1.769,1.761-1.489,5.972-1.489,5.972s4.322,0.157,5.984-1.498 C30.5,75.016,28.082,75.33,26.87,74.124z"/><path fill="none" stroke="#24262e" stroke-linecap="round" stroke-linejoin="round" stroke-miterlimit="10" d="M65.508,27.501 c0,1.658-3.008,4.999-3.008,4.999s-2.996-3.341-2.996-4.999c0-1.658,1.344-3.002,3.002-3.002S65.508,25.843,65.508,27.501z"/><path fill="none" stroke="#24262e" stroke-miterlimit="10" d="M55.02,24.486c1.239,0,2.222-0.928,2.399-2.118 c-0.615-0.915-1.547-1.782-2.92-1.782c-0.617,0-1.175,0.14-1.67,0.34c-0.166,0.332-0.28,0.693-0.28,1.089 C52.55,23.38,53.656,24.486,55.02,24.486z"/><path fill="none" stroke="#24262e" stroke-linecap="round" stroke-linejoin="round" stroke-miterlimit="10" d="M70.499,20.499 c0.632,0,1.204,0.144,1.712,0.349c1.412,0.573,2.286,1.652,2.286,1.652s-0.721,4.004-4.359,4.004c-1.465,0-2.956-1.012-3.635-2.002 c0,0,0.295-1.119,1.005-2.175C68.137,21.389,69.092,20.499,70.499,20.499z"/><path fill="none" stroke="#24262e" stroke-miterlimit="10" d="M69.977,24.486c-1.239,0-2.222-0.928-2.399-2.118 c0.615-0.915,1.547-1.782,2.92-1.782c0.617,0,1.175,0.14,1.67,0.34c0.166,0.332,0.28,0.693,0.28,1.089 C72.447,23.38,71.341,24.486,69.977,24.486z"/></svg>