<svg xmlns="http://www.w3.org/2000/svg" xmlns:xlink="http://www.w3.org/1999/xlink" viewBox="0 0 100 100" width="400px" height="400px"><circle cx="21" cy="25.973" r="14" fill="#31c4f3"/><path fill="#1f212b" d="M21,40.973c-8.271,0-15-6.729-15-15s6.729-15,15-15s15,6.729,15,15S29.271,40.973,21,40.973z M21,12.973c-7.168,0-13,5.832-13,13s5.832,13,13,13s13-5.832,13-13S28.168,12.973,21,12.973z"/><circle cx="22.5" cy="27.473" r="8" fill="#c4e7ed"/><path fill="#1f212b" d="M22.5,35.973c-4.687,0-8.5-3.813-8.5-8.5s3.813-8.5,8.5-8.5s8.5,3.813,8.5,8.5 S27.187,35.973,22.5,35.973z M22.5,19.973c-4.136,0-7.5,3.364-7.5,7.5s3.364,7.5,7.5,7.5s7.5-3.364,7.5-7.5 S26.636,19.973,22.5,19.973z"/><circle cx="79" cy="25.973" r="14" fill="#31c4f3"/><path fill="#1f212b" d="M79,40.973c-8.271,0-15-6.729-15-15s6.729-15,15-15s15,6.729,15,15S87.271,40.973,79,40.973z M79,12.973c-7.168,0-13,5.832-13,13s5.832,13,13,13s13-5.832,13-13S86.168,12.973,79,12.973z"/><circle cx="77.5" cy="27.473" r="8" fill="#c4e7ed"/><path fill="#1f212b" d="M77.5,35.973c-4.687,0-8.5-3.813-8.5-8.5s3.813-8.5,8.5-8.5s8.5,3.813,8.5,8.5 S82.187,35.973,77.5,35.973z M77.5,19.973c-4.136,0-7.5,3.364-7.5,7.5s3.364,7.5,7.5,7.5s7.5-3.364,7.5-7.5 S81.636,19.973,77.5,19.973z"/><path fill="#31c4f3" d="M35,61.973c-3,3-7,10-7,16c0,2.761,2.239,5,5,5s5-2.239,5-5v-16C38,61.973,36.75,61.973,35,61.973z"/><path fill="#1f212b" d="M33,83.973c-3.309,0-6-2.691-6-6c0-6.493,4.265-13.679,7.293-16.707l0.293-0.293H39v17 C39,81.281,36.309,83.973,33,83.973z M35.424,62.973c-2.692,2.873-6.424,9.344-6.424,15c0,2.206,1.794,4,4,4s4-1.794,4-4v-15 H35.424z"/><path fill="#31c4f3" d="M65,61.973c-1.75,0-3,0-3,0v16c0,2.761,2.239,5,5,5s5-2.239,5-5C72,71.973,68,64.973,65,61.973z"/><path fill="#1f212b" d="M67,83.973c-3.309,0-6-2.691-6-6v-17h4.414l0.293,0.293C68.735,64.294,73,71.48,73,77.973 C73,81.281,70.309,83.973,67,83.973z M63,62.973v15c0,2.206,1.794,4,4,4s4-1.794,4-4c0-5.656-3.732-12.127-6.424-15H63z"/><g opacity=".66"><defs><rect id="LGlZXj1U6mGfPlObzW7Ewa" width="100" height="100" x="-263.771" y="140" opacity=".66"/></defs><clipPath id="LGlZXj1U6mGfPlObzW7Ewb"><use overflow="visible" xlink:href="#LGlZXj1U6mGfPlObzW7Ewa"/></clipPath></g><path fill="#31c4f3" d="M60.129,92.973c1.573,0,3.005-0.918,3.652-2.352C65.188,87.5,66,83.863,66,79.973 c0-11.598-7.163-21-16-21s-16,9.402-16,21c0,3.89,0.812,7.527,2.219,10.648c0.647,1.434,2.078,2.352,3.652,2.352H60.129z"/><path fill="#1f212b" d="M60.129,93.973H39.871c-1.967,0-3.758-1.154-4.563-2.94C33.798,87.683,33,83.859,33,79.973 c0-12.131,7.626-22,17-22s17,9.869,17,22c0,3.886-0.798,7.71-2.308,11.06C63.887,92.819,62.096,93.973,60.129,93.973z M50,59.973 c-8.271,0-15,8.972-15,20c0,3.604,0.737,7.145,2.131,10.237c0.483,1.071,1.559,1.763,2.74,1.763h20.258 c1.182,0,2.257-0.691,2.74-1.763C64.263,87.117,65,83.577,65,79.973C65,68.945,58.271,59.973,50,59.973z"/><ellipse cx="49.75" cy="72.973" fill="#c4e7ed" rx="9.25" ry="10.5"/><path fill="#1f212b" d="M49.75,83.973c-5.376,0-9.75-4.935-9.75-11s4.374-11,9.75-11s9.75,4.935,9.75,11 S55.126,83.973,49.75,83.973z M49.75,62.973c-4.825,0-8.75,4.486-8.75,10s3.925,10,8.75,10s8.75-4.486,8.75-10 S54.575,62.973,49.75,62.973z"/><g><path fill="#31c4f3" d="M61.839,92.973c0.731,0,1.417-0.377,1.771-1.005C64.484,90.417,65,88.523,65,86.473 c0-5.247-3.358-9.5-7.5-9.5s-7.5,4.253-7.5,9.5c0,2.05,0.516,3.944,1.389,5.495c0.354,0.629,1.041,1.005,1.771,1.005H61.839z"/><path fill="#1f212b" d="M61.839,93.973h-8.679c-1.104,0-2.116-0.58-2.643-1.514C49.525,90.695,49,88.625,49,86.473 c0-5.79,3.813-10.5,8.5-10.5s8.5,4.71,8.5,10.5c0,2.152-0.525,4.222-1.518,5.985C63.956,93.393,62.943,93.973,61.839,93.973z M57.5,77.973c-3.584,0-6.5,3.813-6.5,8.5c0,1.81,0.436,3.54,1.261,5.005c0.172,0.305,0.517,0.495,0.9,0.495h8.679 c0.383,0,0.728-0.19,0.9-0.496c0.824-1.464,1.26-3.194,1.26-5.004C64,81.786,61.084,77.973,57.5,77.973z"/></g><g><path fill="#31c4f3" d="M46.839,92.973c0.731,0,1.417-0.377,1.771-1.005C49.484,90.417,50,88.523,50,86.473 c0-5.247-3.358-9.5-7.5-9.5s-7.5,4.253-7.5,9.5c0,2.05,0.516,3.944,1.389,5.495c0.354,0.629,1.041,1.005,1.771,1.005H46.839z"/><path fill="#1f212b" d="M46.839,93.973h-8.679c-1.104,0-2.116-0.58-2.643-1.514C34.525,90.695,34,88.625,34,86.473 c0-5.79,3.813-10.5,8.5-10.5s8.5,4.71,8.5,10.5c0,2.152-0.525,4.222-1.518,5.985C48.956,93.393,47.943,93.973,46.839,93.973z M42.5,77.973c-3.584,0-6.5,3.813-6.5,8.5c0,1.81,0.436,3.54,1.261,5.005c0.172,0.305,0.517,0.495,0.9,0.495h8.679 c0.383,0,0.728-0.19,0.9-0.496c0.824-1.464,1.26-3.194,1.26-5.004C49,81.786,46.084,77.973,42.5,77.973z"/></g><g><path fill="#31c4f3" d="M81,44.973c0-12.979-13.879-26-31-26s-31,13.021-31,26s13.879,21,31,21S81,57.952,81,44.973z"/><path fill="#1f212b" d="M50,66.973c-18.841,0-32-9.047-32-22c0-14.131,15.252-27,32-27s32,12.869,32,27 C82,57.926,68.841,66.973,50,66.973z M50,19.973c-17.17,0-30,13.199-30,25c0,11.775,12.336,20,30,20s30-8.225,30-20 C80,33.172,67.17,19.973,50,19.973z"/></g><g><path fill="#6666a4" d="M56.5,49.073c0-4.418-2.91-9.6-6.5-9.6s-6.5,5.182-6.5,9.6s2.91,6.4,6.5,6.4 S56.5,53.491,56.5,49.073z"/><path fill="#1f212b" d="M50,55.973c-4.318,0-7-2.645-7-6.9c0-4.671,3.058-10.1,7-10.1s7,5.429,7,10.1 C57,53.328,54.318,55.973,50,55.973z M50,39.973c-3.324,0-6,4.978-6,9.1c0,3.694,2.243,5.9,6,5.9s6-2.206,6-5.9 C56,44.95,53.324,39.973,50,39.973z"/></g><path fill="#1f212b" d="M32.999,48.973c-0.489,0-0.917-0.359-0.988-0.858c-0.078-0.547,0.302-1.054,0.848-1.132l7-1	c0.547-0.075,1.053,0.301,1.131,0.849c0.078,0.547-0.302,1.054-0.848,1.132l-7,1C33.093,48.97,33.046,48.973,32.999,48.973z"/><path fill="#1f212b" d="M67.001,48.973c-0.047,0-0.095-0.003-0.143-0.01l-7-1c-0.546-0.078-0.926-0.585-0.848-1.132	s0.582-0.934,1.131-0.849l7,1c0.546,0.078,0.926,0.585,0.848,1.132C67.918,48.613,67.491,48.973,67.001,48.973z"/><path fill="#1f212b" d="M50,59.973c-2.21,0-4.357-1.061-4.447-1.105c-0.493-0.247-0.693-0.846-0.447-1.34	c0.245-0.494,0.844-0.695,1.34-0.45c0.018,0.01,1.824,0.896,3.554,0.896s3.536-0.886,3.554-0.896c0.495-0.245,1.094-0.044,1.34,0.45	c0.246,0.494,0.046,1.093-0.447,1.34C54.357,58.912,52.21,59.973,50,59.973z"/><g><path fill="#1f212b" d="M53.5,24.187c-0.02,0-0.041-0.001-0.061-0.004c-1.144-0.14-2.301-0.21-3.439-0.21 c-0.276,0-0.5-0.224-0.5-0.5s0.224-0.5,0.5-0.5c1.179,0,2.377,0.073,3.561,0.218c0.274,0.033,0.469,0.282,0.436,0.557 C53.965,24.001,53.75,24.187,53.5,24.187z"/><path fill="#1f212b" d="M73.035,35.473c-0.157,0-0.312-0.074-0.409-0.212c-1.528-2.17-3.481-4.132-5.807-5.832 c-1.171-0.853-2.416-1.617-3.698-2.271c-2.128-1.094-4.393-1.921-6.733-2.458c-0.269-0.062-0.438-0.33-0.375-0.6 c0.062-0.269,0.333-0.436,0.599-0.375c2.421,0.556,4.765,1.411,6.965,2.543c1.328,0.677,2.617,1.469,3.832,2.353 c2.414,1.765,4.444,3.805,6.035,6.063c0.159,0.226,0.105,0.538-0.121,0.697C73.235,35.444,73.135,35.473,73.035,35.473z"/><path fill="#1f212b" d="M76.5,45.473c-0.276,0-0.5-0.224-0.5-0.5c0-1.219-0.174-2.483-0.518-3.76 c-0.309-1.159-0.772-2.345-1.38-3.525c-0.126-0.245-0.029-0.547,0.216-0.673c0.246-0.13,0.546-0.03,0.673,0.216 c0.64,1.244,1.129,2.497,1.456,3.724C76.814,42.315,77,43.667,77,44.973C77,45.249,76.776,45.473,76.5,45.473z"/></g></svg>