<svg xmlns="http://www.w3.org/2000/svg"  viewBox="0 0 64 64" width="512px" height="512px"><path fill="#7e8089" d="M55,20L49,4l-8,3c1.81-0.724,3.096-0.374,4,0c1.593,0.659,2,3,2,3c2,6-6,10-6,10l-1-8L30,4l-5,8l5-3 l2,3c-3,13-10,6-10,6c-6-5,1-13,1-13C14,7,9,22,9,22c1,8,11,18,11,18l26,1c3-1,7-6,7-6l-3-4L55,20z"/><path fill="#faefde" d="M18,38c0,0-3,8,4,9l-2-8L18,38z"/><path fill="#faefde" d="M49.361,39c0,0,3,8-4,9l2-8L49.361,39z"/><path fill="#faefde" d="M18,24c0,0,13,2,15,4c0,0,12-3,15-2l-3,6c0,0,4,21-11,28c0,0-14-5-14-25l2-4L18,24z"/><path fill="#8d6c9f" d="M35,50c-0.153,0-0.306-0.035-0.447-0.105l-2-1c-0.494-0.247-0.694-0.848-0.447-1.342 c0.248-0.494,0.848-0.693,1.342-0.447L34,47.382V43c0-0.553,0.447-1,1-1s1,0.447,1,1v6c0,0.347-0.18,0.668-0.475,0.851 C35.365,49.95,35.183,50,35,50z"/><path fill="#8d6c9f" d="M32,55c-0.396,0-0.772-0.237-0.929-0.629c-0.205-0.513,0.045-1.095,0.558-1.3l5-2 c0.508-0.204,1.095,0.043,1.3,0.558c0.205,0.513-0.045,1.095-0.558,1.3l-5,2C32.25,54.978,32.124,55,32,55z"/><path fill="#8d6c9f" d="M39,31.045c-0.552,0-1,0.448-1,1v2c0,0.552,0.448,1,1,1s1-0.448,1-1v-2 C40,31.493,39.552,31.045,39,31.045z M34,35.045c0.552,0,1-0.448,1-1v-2c0-0.552-0.448-1-1-1s-1,0.448-1,1v2 C33,34.597,33.448,35.045,34,35.045z"/><path fill="#8d6c9f" d="M29,31.045c-0.552,0-1,0.448-1,1v2c0,0.552,0.448,1,1,1s1-0.448,1-1v-2 C30,31.493,29.552,31.045,29,31.045z"/><path fill="#8d6c9f" d="M55.937,19.648l-6-16c-0.194-0.518-0.771-0.775-1.288-0.585l-7.713,2.893	c-0.102,0.036-0.203,0.074-0.307,0.115c-0.509,0.203-0.76,0.778-0.562,1.29c0.198,0.511,0.769,0.765,1.284,0.575l0.267-0.101	c1.326-0.46,2.26-0.218,2.999,0.088c0.878,0.363,1.307,1.748,1.397,2.248c0.009,0.049,0.021,0.097,0.037,0.145	c1.249,3.747-2.268,6.713-4.25,8.038l-0.81-6.479c-0.032-0.259-0.164-0.494-0.367-0.657l-10-8c-0.223-0.178-0.511-0.253-0.793-0.204	c-0.281,0.048-0.528,0.213-0.68,0.455l-5,8c-0.245,0.393-0.189,0.901,0.134,1.23c0.323,0.33,0.83,0.394,1.229,0.157l4.183-2.51	l1.229,1.845c-0.938,3.813-2.333,6.086-4.044,6.582c-2.052,0.596-4.155-1.463-4.241-1.543c-1.263-1.051-1.934-2.284-2.052-3.771	c-0.302-3.776,3.13-7.764,3.164-7.804c0.284-0.325,0.327-0.797,0.106-1.168s-0.654-0.556-1.076-0.466	C13.339,6.122,8.263,21.05,8.052,21.684c-0.048,0.142-0.063,0.292-0.044,0.44c0.656,5.253,4.88,11.174,7.973,14.896	c-0.186,1.083-0.886,6.091,1.398,9.32c1.046,1.479,2.546,2.367,4.458,2.646c4.233,9.12,11.721,11.918,11.827,11.955	C33.772,60.98,33.887,61,34,61c0.161,0,0.322-0.039,0.468-0.116c5.982-3.167,9.223-7.547,10.899-11.952	c4.033-1.189,5.35-3.912,5.741-5.998c0.414-2.207-0.123-4.129-0.146-4.209c-0.003-0.009-0.009-0.014-0.012-0.023	c1.564-1.508,2.741-2.965,2.831-3.078c0.284-0.356,0.292-0.86,0.019-1.225l-2.645-3.526l4.755-10.46	C56.021,20.172,56.029,19.897,55.937,19.648z M19.015,45.188c-1.243-1.753-1.351-4.352-1.248-6.106	c0.844,0.933,1.432,1.531,1.527,1.625c0.04,0.04,0.091,0.059,0.136,0.091c0.329,2.161,0.832,4.11,1.459,5.861	C20.128,46.347,19.499,45.872,19.015,45.188z M33.943,58.894c-2.197-0.985-12.846-6.641-12.942-23.659l1.894-3.787	c0.149-0.299,0.14-0.653-0.026-0.943l-2.861-5.007c5.034,1.195,11.344,2.796,12.546,3.397c0.213,0.105,0.46,0.134,0.689,0.075	c3.879-0.969,10.267-2.253,13.243-2.177l-2.38,4.76c-0.116,0.231-0.137,0.5-0.06,0.747c0.102,0.326,1.17,3.869,1.001,8.463	c-0.03,0.119-0.035,0.239-0.019,0.365C44.737,46.898,42.452,54.199,33.943,58.894z M46.151,46.468	c0.423-1.635,0.654-3.24,0.761-4.758c0.759-0.348,1.543-0.877,2.3-1.477C49.398,41.798,49.291,44.866,46.151,46.468z M49.09,30.586	c-0.151,0.333-0.109,0.722,0.11,1.014l2.526,3.369c-1.079,1.258-3.012,3.288-4.741,4.408c-0.03-3.524-0.657-6.277-0.919-7.274	l2.828-5.655c0.13-0.26,0.141-0.563,0.029-0.83s-0.333-0.475-0.607-0.565C45.322,24.051,35.33,26.4,33.09,26.948	c-2.795-1.123-13.587-3.628-14.865-3.923c-0.386-0.088-0.79,0.06-1.027,0.378c-0.237,0.319-0.263,0.748-0.065,1.093l3.734,6.535	l-1.761,3.521C19.036,34.691,19,34.845,19,35c0,0.881,0.036,1.725,0.088,2.551c-2.779-3.114-8.24-9.841-9.064-15.448	c0.559-1.564,4.221-11.266,10.275-14.928c-0.967,1.732-1.892,4.063-1.704,6.437c0.159,2.025,1.09,3.76,2.698,5.095	c0.12,0.12,2.959,2.904,6.133,1.992c2.553-0.732,4.42-3.583,5.549-8.475c0.062-0.269,0.01-0.55-0.143-0.779l-2-3	c-0.297-0.444-0.888-0.58-1.347-0.303l-1.433,0.859l2.2-3.52l8.806,7.045l0.949,7.597c0.04,0.322,0.234,0.604,0.521,0.758	c0.288,0.154,0.631,0.157,0.919,0.013c0.357-0.179,8.694-4.438,6.523-11.144c-0.097-0.488-0.589-2.546-2.188-3.477l2.632-0.987	l5.503,14.676L49.09,30.586z"/><ellipse cx="29" cy="41.5" fill="#acb7d0" rx="3" ry="3.5"/><ellipse cx="40" cy="41.5" fill="#acb7d0" rx="3" ry="3.5"/><path fill="#8d6c9f" d="M32,39c0-0.553-0.447-1-1-1h-5c-0.553,0-1,0.447-1,1s0.447,1,1,1h3h0.03 C29.01,40.162,29,40.329,29,40.5c0,1.381,0.672,2.5,1.5,2.5s1.5-1.119,1.5-2.5C32,40.329,32,39,32,39z"/><path fill="#8d6c9f" d="M42,38h-4c-0.553,0-1,0.447-1,1c0,0,0,1.329,0,1.5c0,1.381,0.672,2.5,1.5,2.5s1.5-1.119,1.5-2.5 c0-0.171-0.01-0.338-0.03-0.5H40h2c0.553,0,1-0.447,1-1S42.553,38,42,38z"/></svg>