<svg xmlns="http://www.w3.org/2000/svg"  viewBox="0 0 100 100" width="400px" height="400px"><path fill="#3a83c1" d="M67,83.223c0,2.07-1.68,3.75-3.75,3.75s-3.75-1.68-3.75-3.75L55,68.973c0,0,4.69,0,6,0	c1.29,1.29,3.4,4.64,4.74,8.26c0.6,1.6,1.04,3.25,1.19,4.81C66.98,82.443,67,82.833,67,83.223z"/><path fill="#f9e65c" d="M66.93,82.043c-0.29,0.12-0.6,0.18-0.93,0.18c-1.38,0-2.5-1.12-2.5-2.5c0-1.29,0.98-2.36,2.24-2.49 C66.34,78.833,66.78,80.483,66.93,82.043z"/><path fill="#1f212b" d="M66,82.723c-1.654,0-3-1.346-3-3c0-1.545,1.156-2.83,2.689-2.987c0.224-0.024,0.44,0.109,0.52,0.321 c0.665,1.775,1.075,3.437,1.219,4.938c0.021,0.22-0.104,0.427-0.308,0.511C66.77,82.65,66.393,82.723,66,82.723z M65.417,77.805 C64.587,78.055,64,78.822,64,79.723c0,1.103,0.897,2,2,2c0.132,0,0.262-0.013,0.387-0.037C66.235,80.491,65.91,79.19,65.417,77.805 z"/><path fill="#1f212b" d="M63.25,87.973c-2.564,0-4.661-2.043-4.747-4.587l-4.867-15.413h7.778l0.293,0.293	c1.37,1.37,3.578,4.856,4.971,8.619c0.679,1.812,1.099,3.517,1.248,5.062C67.975,82.338,68,82.764,68,83.223	C68,85.842,65.869,87.973,63.25,87.973z M56.364,69.973l4.136,13.25c0,1.517,1.233,2.75,2.75,2.75S66,84.739,66,83.223	c0-0.375-0.021-0.721-0.062-1.056c-0.135-1.399-0.516-2.932-1.134-4.584c-1.161-3.135-2.991-6.199-4.237-7.61H56.364z"/><path fill="#3a83c1" d="M45,68.973l-4.5,14.25c0,2.07-1.68,3.75-3.75,3.75S33,85.293,33,83.223c0-1.31,0.25-2.73,0.66-4.15	c0.44-1.56,1.07-3.13,1.77-4.56c1.21-2.5,2.62-4.59,3.57-5.54C40.31,68.973,45,68.973,45,68.973z"/><path fill="#f9e65c" d="M37.5,76.973c0,1.38-1.12,2.5-2.5,2.5c-0.49,0-0.96-0.14-1.34-0.4c0.44-1.56,1.07-3.13,1.77-4.56 C36.61,74.713,37.5,75.743,37.5,76.973z"/><path fill="#1f212b" d="M35,79.973c-0.596,0-1.158-0.169-1.623-0.488c-0.177-0.121-0.257-0.342-0.199-0.548 c0.42-1.487,1.043-3.093,1.802-4.644c0.097-0.199,0.311-0.312,0.533-0.273C36.955,74.265,38,75.506,38,76.973 C38,78.627,36.654,79.973,35,79.973z M34.252,78.827c0.229,0.095,0.486,0.146,0.748,0.146c1.103,0,2-0.897,2-2 c0-0.852-0.528-1.589-1.298-1.872C35.112,76.35,34.616,77.624,34.252,78.827z"/><path fill="#1f212b" d="M36.75,87.973c-2.619,0-4.75-2.131-4.75-4.75c0-1.331,0.235-2.821,0.699-4.428	c0.426-1.51,1.061-3.145,1.833-4.722c1.165-2.408,2.642-4.689,3.761-5.808l0.293-0.293h7.778l-4.867,15.413	C41.411,85.93,39.314,87.973,36.75,87.973z M39.434,69.973c-0.812,0.924-2.009,2.713-3.104,4.976	c-0.722,1.476-1.312,2.994-1.708,4.396C34.209,80.777,34,82.079,34,83.223c0,1.517,1.233,2.75,2.75,2.75s2.75-1.233,2.75-2.75	l0.046-0.301l4.089-12.949H39.434z"/><path fill="#3a83c1" d="M57.597,92.973c1.18,0,2.254-0.688,2.739-1.764C61.391,88.868,62,86.14,62,83.223 c0-8.699-5.373-15.75-12-15.75s-12,7.051-12,15.75c0,2.918,0.609,5.645,1.665,7.986c0.485,1.076,1.559,1.764,2.739,1.764H57.597z"/><path fill="#1f212b" d="M57.597,93.973H42.403c-1.573,0-3.006-0.924-3.65-2.353C37.606,89.076,37,86.172,37,83.223 c0-9.236,5.832-16.75,13-16.75s13,7.514,13,16.75c0,2.949-0.606,5.854-1.753,8.397C60.603,93.049,59.17,93.973,57.597,93.973z M50,68.473c-6.065,0-11,6.617-11,14.75c0,2.668,0.545,5.288,1.576,7.575c0.322,0.714,1.039,1.175,1.827,1.175h15.193 c0.788,0,1.505-0.461,1.827-1.175C60.455,88.511,61,85.891,61,83.223C61,75.09,56.065,68.473,50,68.473z"/><circle cx="47" cy="78.973" r="2.5" fill="#f9e65c"/><path fill="#1f212b" d="M47,81.973c-1.654,0-3-1.346-3-3s1.346-3,3-3s3,1.346,3,3S48.654,81.973,47,81.973z M47,76.973 c-1.103,0-2,0.897-2,2s0.897,2,2,2s2-0.897,2-2S48.103,76.973,47,76.973z"/><circle cx="56" cy="75.973" r="2.5" fill="#f9e65c"/><path fill="#1f212b" d="M56,78.973c-1.654,0-3-1.346-3-3s1.346-3,3-3s3,1.346,3,3S57.654,78.973,56,78.973z M56,73.973 c-1.103,0-2,0.897-2,2s0.897,2,2,2s2-0.897,2-2S57.103,73.973,56,73.973z"/><path fill="#e85654" d="M50,72.973c-7.25,0-37-16-37-36c0-18,13.5-21,18-21s11.75,1.75,18,9c2.25-5,9.75-18,22-18 s19,11.25,19,22C90,53.973,57,72.973,50,72.973z"/><path fill="#1f212b" d="M50,73.973c-7.69,0-38-16.178-38-37c0-17.402,12.428-22,19-22c3.068,0,10.73,0.829,17.741,8.223 C51.176,18.358,58.618,5.973,71,5.973c12.991,0,20,11.851,20,23c0,13.917-9.637,25.155-17.722,32.132 C64.359,68.802,54.041,73.973,50,73.973z M31,16.973c-0.17,0-17,0.229-17,20c0,19.277,28.944,35,36,35c6.264,0,39-18.346,39-43 c0-10.181-6.309-21-18-21c-12.614,0-19.78,14.503-21.088,17.41c-0.141,0.312-0.43,0.53-0.768,0.579 c-0.342,0.055-0.678-0.077-0.901-0.336C41.51,17.816,33.941,16.973,31,16.973z"/><path fill="#1f212b" d="M69.857,57.291c-0.14,0-0.279-0.059-0.377-0.172c-0.181-0.209-0.159-0.524,0.05-0.706 c0.664-0.576,1.38-1.223,2.125-1.932c0.201-0.189,0.517-0.183,0.707,0.018s0.182,0.517-0.018,0.707 c-0.758,0.721-1.485,1.377-2.16,1.963C70.09,57.251,69.974,57.291,69.857,57.291z"/><path fill="#1f212b" d="M73.888,53.473c-0.125,0-0.25-0.047-0.348-0.141c-0.198-0.191-0.204-0.509-0.012-0.707 c1.875-1.939,3.556-3.939,4.999-5.944c0.161-0.225,0.474-0.276,0.698-0.114s0.275,0.474,0.114,0.698 c-1.471,2.044-3.184,4.082-5.092,6.056C74.149,53.422,74.019,53.473,73.888,53.473z"/><path fill="#1f212b" d="M81.211,43.973c-0.085,0-0.172-0.021-0.251-0.068c-0.239-0.139-0.319-0.444-0.181-0.684 C83.58,38.412,85,33.618,85,28.973c0-8.241-4.907-17-14-17c-10.368,0-16.747,13.511-17.44,15.052 c-0.113,0.252-0.409,0.366-0.661,0.251c-0.252-0.113-0.364-0.409-0.251-0.661C53.368,25.014,60.003,10.973,71,10.973 c9.743,0,15,9.274,15,18c0,4.825-1.466,9.788-4.356,14.752C81.551,43.884,81.383,43.973,81.211,43.973z"/><g><ellipse cx="50" cy="58.473" fill="#f9e65c" rx="7.5" ry="5"/><path fill="#1f212b" d="M50,63.973c-4.411,0-8-2.468-8-5.5s3.589-5.5,8-5.5s8,2.468,8,5.5S54.411,63.973,50,63.973z M50,53.973c-3.86,0-7,2.019-7,4.5s3.14,4.5,7,4.5s7-2.019,7-4.5S53.86,53.973,50,53.973z"/></g><path fill="#1f212b" d="M53,59.973h-6c-0.552,0-1-0.447-1-1s0.448-1,1-1h6c0.552,0,1,0.447,1,1S53.552,59.973,53,59.973z"/><path fill="#1f212b" d="M47,46.973h-5c-0.552,0-1-0.447-1-1s0.448-1,1-1h5c0.552,0,1,0.447,1,1S47.552,46.973,47,46.973z"/><path fill="#1f212b" d="M58,46.973h-5c-0.552,0-1-0.447-1-1s0.448-1,1-1h5c0.552,0,1,0.447,1,1S58.552,46.973,58,46.973z"/><g><circle cx="44.5" cy="50.473" r="2" fill="#444445"/><path fill="#1f212b" d="M44.5,52.973c-1.378,0-2.5-1.121-2.5-2.5s1.122-2.5,2.5-2.5s2.5,1.121,2.5,2.5 S45.878,52.973,44.5,52.973z M44.5,48.973c-0.827,0-1.5,0.673-1.5,1.5s0.673,1.5,1.5,1.5s1.5-0.673,1.5-1.5 S45.327,48.973,44.5,48.973z"/></g><g><circle cx="55.5" cy="50.473" r="2" fill="#444445"/><path fill="#1f212b" d="M55.5,52.973c-1.378,0-2.5-1.121-2.5-2.5s1.122-2.5,2.5-2.5s2.5,1.121,2.5,2.5 S56.878,52.973,55.5,52.973z M55.5,48.973c-0.827,0-1.5,0.673-1.5,1.5s0.673,1.5,1.5,1.5s1.5-0.673,1.5-1.5 S56.327,48.973,55.5,48.973z"/></g><g><path fill="#3a83c1" d="M58.682,92.973c0.536,0,1.039-0.282,1.299-0.754C60.621,91.056,61,89.635,61,88.098 c0-3.935-2.462-7.125-5.5-7.125s-5.5,3.19-5.5,7.125c0,1.538,0.379,2.958,1.019,4.121c0.26,0.471,0.763,0.754,1.299,0.754H58.682z"/><path fill="#1f212b" d="M58.682,93.973h-6.364c-0.91,0-1.744-0.487-2.175-1.272C49.396,91.344,49,89.752,49,88.098 c0-4.48,2.916-8.125,6.5-8.125s6.5,3.645,6.5,8.125c0,1.654-0.396,3.246-1.143,4.604C60.426,93.486,59.592,93.973,58.682,93.973z M55.5,81.973c-2.481,0-4.5,2.748-4.5,6.125c0,1.317,0.31,2.575,0.895,3.639c0.08,0.146,0.242,0.236,0.423,0.236h6.364 c0.181,0,0.343-0.09,0.422-0.235C59.69,90.673,60,89.415,60,88.098C60,84.721,57.981,81.973,55.5,81.973z"/></g><g><path fill="#3a83c1" d="M47.682,92.973c0.536,0,1.039-0.282,1.299-0.754C49.621,91.056,50,89.635,50,88.098 c0-3.935-2.462-7.125-5.5-7.125s-5.5,3.19-5.5,7.125c0,1.538,0.379,2.958,1.019,4.121c0.26,0.471,0.763,0.754,1.299,0.754H47.682z"/><path fill="#1f212b" d="M47.682,93.973h-6.364c-0.91,0-1.744-0.487-2.175-1.272C38.396,91.344,38,89.752,38,88.098 c0-4.48,2.916-8.125,6.5-8.125s6.5,3.645,6.5,8.125c0,1.654-0.396,3.246-1.143,4.604C49.426,93.486,48.592,93.973,47.682,93.973z M44.5,81.973c-2.481,0-4.5,2.748-4.5,6.125c0,1.317,0.31,2.575,0.895,3.639c0.08,0.146,0.242,0.236,0.423,0.236h6.364 c0.181,0,0.343-0.09,0.422-0.235C48.69,90.673,49,89.415,49,88.098C49,84.721,46.981,81.973,44.5,81.973z"/></g></svg>