<svg xmlns="http://www.w3.org/2000/svg"  viewBox="0 0 100 100" width="400px" height="400px"><path fill="#4e6e91" d="M81,44c0,16-17.193,47-31,47S19,60,19,44C19,26,33,9,50,9S81,26,81,44z"/><path fill="#d3dff1" d="M50,17.5c-8.582,0-15.715,6.179-17.206,14.329c-0.305,1.668-1.233,3.163-2.686,4.037	c-3.024,1.818-4.953,5.268-4.556,9.137c0.192,1.876,0.953,3.6,2.102,4.997c0.639,0.778,1.461,1.368,2.248,2	c5.599,4.5,6.599,4.5,13.912,28c0.296,0.95,0.823,1.799,1.496,2.5c1.183,1.233,2.847,2,4.69,2s3.507-0.767,4.69-2	c0.673-0.701,1.2-1.55,1.496-2.5C63.5,56.5,64.5,56.5,70.099,52c0.786-0.632,1.608-1.222,2.248-2	c1.149-1.398,1.91-3.122,2.102-4.997c0.397-3.869-1.532-7.318-4.556-9.137c-1.453-0.874-2.381-2.369-2.686-4.037	C65.715,23.679,58.582,17.5,50,17.5z"/><path fill="#444445" d="M46.5,31.75c0-1.243-1.007-2.25-2.25-2.25c-0.707,0-1.338,0.326-1.75,0.836	c-0.159,0.197-0.268,0.428-0.372,0.664c-2.628,6-5.628,6.5-7.956,8.5C33.177,40.354,32.5,41.586,32.5,43c0,2.485,2.015,4.5,4.5,4.5	C41.5,47.5,46.5,41.5,46.5,31.75z"/><path fill="#444445" d="M53.5,31.75c0-1.243,1.007-2.25,2.25-2.25c0.707,0,1.338,0.326,1.75,0.836	c0.159,0.197,0.268,0.428,0.372,0.664c2.628,6,5.628,6.5,7.956,8.5c0.995,0.855,1.672,2.086,1.672,3.5c0,2.485-2.015,4.5-4.5,4.5	C58.5,47.5,53.5,41.5,53.5,31.75z"/><path fill="#444445" d="M50,54.5c-3.038,0-5.5,2.462-5.5,5.5c0,4.5,3,6.5,3,17c0,1.381,1.119,2.5,2.5,2.5s2.5-1.119,2.5-2.5	c0-10.5,3-12.5,3-17C55.5,56.962,53.038,54.5,50,54.5z"/><path fill="#444445" d="M50,49.5c1,0,1.5,2,3,2c0.828,0,1.5-0.672,1.5-1.5c0-1.5-3-7.5-4.5-7.5s-4.5,6-4.5,7.5	c0,0.828,0.672,1.5,1.5,1.5C48.5,51.5,49,49.5,50,49.5z"/><path fill="#1f212b" d="M50,85c-1.925,0-3.719-0.765-5.052-2.154c-0.748-0.78-1.306-1.712-1.612-2.698	C36.384,57.81,35.214,56.877,30.29,52.951l-1.114-0.888c-0.662-0.522-1.347-1.063-1.908-1.746c-1.251-1.521-2.016-3.342-2.213-5.264	c-0.401-3.911,1.437-7.595,4.795-9.616c1.269-0.763,2.162-2.111,2.452-3.698C33.864,23.199,41.308,17,50,17	s16.136,6.199,17.698,14.739c0.291,1.588,1.185,2.936,2.452,3.698c3.358,2.02,5.196,5.705,4.795,9.616	c-0.197,1.922-0.962,3.743-2.212,5.264c-0.563,0.683-1.247,1.224-1.909,1.746l-1.114,0.888c-4.924,3.926-6.094,4.858-13.046,27.197	c-0.307,0.985-0.864,1.918-1.613,2.698C53.719,84.235,51.925,85,50,85z M50,18c-8.209,0-15.238,5.854-16.714,13.919	c-0.342,1.87-1.406,3.465-2.921,4.375c-3.023,1.818-4.677,5.136-4.316,8.657c0.178,1.726,0.865,3.362,1.991,4.731	c0.493,0.6,1.106,1.083,1.755,1.595l1.118,0.892c5.118,4.081,6.334,5.05,13.378,27.682c0.261,0.837,0.737,1.634,1.379,2.302	C46.813,83.344,48.35,84,50,84s3.188-0.656,4.33-1.846c0.642-0.668,1.118-1.465,1.379-2.302c7.044-22.632,8.26-23.602,13.378-27.682	l1.118-0.892c0.648-0.512,1.262-0.996,1.756-1.595c1.125-1.369,1.813-3.005,1.99-4.731c0.36-3.522-1.293-6.839-4.316-8.657	c-1.514-0.911-2.578-2.505-2.921-4.375C65.238,23.854,58.209,18,50,18z"/><path fill="#1f212b" d="M37,48c-2.757,0-5-2.243-5-5c0-1.479,0.655-2.857,1.846-3.879c0.613-0.526,1.251-0.94,1.927-1.379	c1.963-1.274,3.992-2.592,5.897-6.942c0.107-0.245,0.239-0.528,0.441-0.778C42.636,29.373,43.416,29,44.25,29	c1.517,0,2.75,1.233,2.75,2.75C47,41.787,41.81,48,37,48z M44.25,30c-0.531,0-1.027,0.237-1.361,0.65	c-0.124,0.154-0.218,0.356-0.303,0.55c-2.025,4.624-4.28,6.088-6.269,7.379c-0.647,0.42-1.258,0.817-1.819,1.299	C33.532,40.708,33,41.817,33,43c0,2.206,1.794,4,4,4c4.347,0,9-6.128,9-15.25C46,30.785,45.215,30,44.25,30z"/><path fill="#1f212b" d="M63,48c-4.81,0-10-6.213-10-16.25c0-1.517,1.233-2.75,2.75-2.75c0.834,0,1.614,0.373,2.139,1.021	c0.202,0.25,0.334,0.533,0.441,0.778c1.905,4.35,3.935,5.667,5.897,6.942c0.676,0.439,1.313,0.854,1.927,1.379	C67.345,40.143,68,41.521,68,43C68,45.757,65.757,48,63,48z M55.75,30C54.785,30,54,30.785,54,31.75C54,40.872,58.653,47,63,47	c2.206,0,4-1.794,4-4c0-1.183-0.532-2.292-1.498-3.121C64.94,39.397,64.33,39,63.683,38.58c-1.988-1.292-4.243-2.755-6.269-7.379	c-0.085-0.194-0.179-0.396-0.303-0.55C56.777,30.237,56.281,30,55.75,30z"/><path fill="#1f212b" d="M50,80c-1.654,0-3-1.346-3-3c0-6.264-1.073-9.439-1.937-11.991C44.493,63.32,44,61.863,44,60	c0-3.309,2.691-6,6-6s6,2.691,6,6c0,1.863-0.493,3.32-1.063,5.009C54.073,67.561,53,70.736,53,77C53,78.654,51.654,80,50,80z M50,55	c-2.757,0-5,2.243-5,5c0,1.698,0.446,3.018,1.011,4.688C46.897,67.31,48,70.572,48,77c0,1.103,0.897,2,2,2s2-0.897,2-2	c0-6.428,1.103-9.69,1.989-12.312C54.554,63.018,55,61.698,55,60C55,57.243,52.757,55,50,55z"/><path fill="#1f212b" d="M53,52c-1.055,0-1.688-0.734-2.197-1.325C50.517,50.343,50.221,50,50,50s-0.517,0.343-0.803,0.675	C48.688,51.266,48.055,52,47,52c-1.103,0-2-0.897-2-2c0-1.458,3.014-8,5-8s5,6.542,5,8C55,51.103,54.103,52,53,52z M50,49	c0.679,0,1.127,0.52,1.561,1.022C51.994,50.525,52.403,51,53,51c0.552,0,1-0.449,1-1c0-1.463-2.972-7-4-7s-4,5.537-4,7	c0,0.551,0.448,1,1,1c0.597,0,1.006-0.475,1.439-0.978C48.873,49.52,49.321,49,50,49z"/><path fill="#1f212b" d="M62.5,18.002c-0.096,0-0.191-0.027-0.277-0.083c-0.278-0.186-0.563-0.357-0.848-0.528l-0.134-0.08	c-0.236-0.143-0.312-0.45-0.169-0.687c0.144-0.237,0.452-0.31,0.687-0.17l0.132,0.08c0.297,0.179,0.595,0.359,0.887,0.552	c0.229,0.153,0.292,0.463,0.139,0.693C62.82,17.924,62.661,18.002,62.5,18.002z"/><path fill="#1f212b" d="M37.5,18.002c-0.161,0-0.32-0.078-0.416-0.223c-0.153-0.23-0.091-0.541,0.14-0.693	C41.244,14.413,45.662,13,50,13c0.771,0,1.61,0.058,2.563,0.178c0.273,0.034,0.468,0.284,0.434,0.559	c-0.035,0.274-0.29,0.46-0.559,0.434C51.515,14.054,50.74,14,50,14c-4.141,0-8.367,1.355-12.224,3.918	C37.691,17.975,37.596,18.002,37.5,18.002z"/><path fill="#1f212b" d="M59.5,16.282c-0.074,0-0.148-0.016-0.219-0.051c-0.971-0.473-1.959-0.875-2.937-1.195	c-0.263-0.086-0.406-0.368-0.32-0.631c0.087-0.263,0.369-0.407,0.631-0.319c1.021,0.334,2.052,0.753,3.063,1.247	c0.249,0.121,0.352,0.42,0.23,0.668C59.863,16.179,59.685,16.282,59.5,16.282z"/><path fill="#1f212b" d="M50,92c-14.726,0-32-31.727-32-48C18,24.822,32.953,8,50,8s32,16.822,32,36	C82,60.273,64.726,92,50,92z M50,10c-15.981,0-30,15.888-30,34c0,15.204,16.5,46,30,46s30-30.796,30-46C80,25.888,65.981,10,50,10z"/></svg>