<svg xmlns="http://www.w3.org/2000/svg"  viewBox="0 0 64 64" width="512px" height="512px"><path fill="#f283a5" d="M51,25C51,8.984,42.493,3,32,3S13,8.984,13,25s8.507,36,19,36S51,41.016,51,25z"/><path fill="#ed7899" d="M27,48c0,6.075,5,13,16,13c6,0,11-4,11-8c0-3,0.895-4,2-4s2,1,2,4c1,0,2-1.507,2-3 c0-2.761-2.239-6-5-6s-5,3.239-5,6s-3.239,5-6,5c-7,0-9-4-9-9v-4h-8V48z"/><path fill="#8d6c9f" d="M43,62c-11.16,0-17-7.043-17-14v-6c0-0.552,0.447-1,1-1s1,0.448,1,1v6c0,5.78,4.694,12,15,12 c5.632,0,10-3.763,10-7c0-4.351,1.88-5,3-5c0.913,0,2.33,0.432,2.823,2.946C58.929,50.667,59,50.347,59,50c0-2.281-0.694-5-4-5 c-2.154,0-4,2.75-4,5c0,3.48-4.778,6-8,6c-4.363,0-9-2.804-9-8v-6c0-0.552,0.447-1,1-1s1,0.448,1,1v6c0,4.402,4.187,6,7,6 c2.479,0,6-2.069,6-4c0-3.237,2.621-7,6-7c3.757,0,6,2.617,6,7c0,1.888-1.283,4-3,4c-0.553,0-1-0.448-1-1c0-0.704-0.072-3-1-3 s-1,2.296-1,3C55,57.71,49.28,62,43,62z"/><path fill="#fff8ee" d="M18.039 35.887L20 45 23 40.129 27 50 30.958 41.971 35 50 39.094 40.631 43 45 45.961 35.887"/><path fill="#8d6c9f" d="M35,51c-0.377,0-0.723-0.212-0.894-0.55l-3.139-6.236l-3.071,6.229 c-0.174,0.353-0.547,0.564-0.933,0.557c-0.395-0.015-0.743-0.259-0.891-0.624l-3.258-8.04l-1.964,3.188 c-0.214,0.348-0.613,0.532-1.021,0.461c-0.402-0.069-0.723-0.376-0.809-0.775l-1.961-9.113c-0.116-0.54,0.228-1.072,0.768-1.188 c0.536-0.115,1.072,0.228,1.188,0.767l1.438,6.679l1.694-2.751c0.197-0.32,0.564-0.504,0.935-0.472 c0.376,0.032,0.702,0.271,0.844,0.621l3.162,7.804l2.973-6.029c0.167-0.34,0.513-0.556,0.893-0.558c0.001,0,0.003,0,0.004,0 c0.378,0,0.724,0.213,0.894,0.55l3.085,6.127l3.242-7.418c0.136-0.312,0.422-0.533,0.758-0.587 c0.334-0.055,0.677,0.067,0.903,0.321l2.747,3.072l2.423-7.458c0.171-0.525,0.735-0.812,1.26-0.642 c0.525,0.171,0.813,0.735,0.643,1.26l-2.961,9.113c-0.11,0.34-0.395,0.596-0.745,0.669c-0.352,0.074-0.714-0.045-0.951-0.312 l-2.867-3.208L35.916,50.4c-0.155,0.355-0.501,0.589-0.889,0.599C35.019,51,35.009,51,35,51z"/><path fill="#8b8e98" d="M32,3C21.507,3,13,8.984,13,25c0,7,8.393,17,19,17s19-9,19-17C51,8.984,42.493,3,32,3z"/><path fill="#8d6c9f" d="M32,62c-11.079,0-20-20.241-20-37c0-14.617,7.29-23,20-23s20,8.383,20,23 c0,10.735-3.667,22.869-9.125,30.194l-1.604-1.195C46.411,47.102,50,35.176,50,25c0-13.542-6.393-21-18-21s-18,7.458-18,21 c0,15.755,8.306,35,18,35c1.029,0,2.586,0,3.293-0.707l1.414,1.414C35.414,62,33.359,62,32,62z"/><path fill="#fff8ee" d="M22,15c-1,0-2,1.067-2,3c0,4,9,6,9,17c-8.552,0-12-6-12-14C17,18.239,19.239,15,22,15"/><path fill="#8d6c9f" d="M29,36c-8.141,0-13-5.233-13-14c0-4.486,2.636-8,6-8c0.553,0,1,0.448,1,1c0,0.54-0.428,0.98-0.964,1 C21.68,16.151,21,17.366,21,18c0,1.078,1.127,2.16,2.555,3.529C26.274,24.138,30,27.711,30,35C30,35.552,29.553,36,29,36z M19,17.991c-0.625,1.055-1,2.454-1,4.009c0,3.479,0.996,11.408,9.972,11.969c-0.325-5.743-3.347-8.642-5.802-10.997 C20.469,21.34,19,19.931,19,18C19,17.997,19,17.994,19,17.991z"/><path fill="#fff8ee" d="M42,15c1,0,2,1.067,2,3c0,4-9,6-9,17c8.552,0,12-6,12-14C47,18.239,44.761,15,42,15"/><path fill="#8d6c9f" d="M35,36c-0.553,0-1-0.448-1-1c0-7.289,3.726-10.862,6.445-13.471C41.873,20.16,43,19.078,43,18 c0-0.634-0.68-1.849-1.036-2c-0.039-0.001-0.077-0.005-0.114-0.011c-0.503-0.049-0.875-0.473-0.875-0.992 C40.975,14.444,41.447,14,42,14c3.364,0,6,3.514,6,8C48,30.767,43.141,36,35,36z M45,17.991c0,0.003,0,0.006,0,0.009 c0,1.931-1.469,3.34-3.17,4.972c-2.455,2.354-5.477,5.253-5.802,10.997C45.004,33.408,46,25.479,46,22 C46,20.445,45.625,19.046,45,17.991z"/><path fill="#8d6c9f" d="M32 43c-10.788 0-19.902-8.701-19.902-19 0-.552.447-1 1-1s1 .448 1 1c0 9.056 8.365 17 17.902 17 9.534 0 17.897-7.944 17.897-17 0-.552.447-1 1-1s1 .448 1 1C51.897 34.299 42.785 43 32 43zM56.511 31.691c-.11 0-.224-.019-.334-.058l-1.886-.668c-.521-.184-.793-.756-.608-1.276.185-.52.754-.795 1.276-.608l1.886.668c.521.184.793.756.608 1.276C57.308 31.435 56.923 31.691 56.511 31.691zM57.726 26.774c-.048 0-.097-.003-.146-.01l-1.979-.288c-.546-.08-.925-.587-.845-1.134.079-.546.588-.926 1.134-.846l1.979.288c.546.08.925.587.845 1.134C58.642 26.416 58.214 26.774 57.726 26.774zM55.967 21.816c-.53 0-.972-.417-.998-.951-.026-.552.398-1.021.95-1.048l1.997-.097c.545-.028 1.021.398 1.048.95.026.552-.398 1.021-.95 1.048l-1.997.097C56 21.815 55.983 21.816 55.967 21.816zM55.287 17.192c-.448 0-.856-.304-.97-.759-.133-.536.193-1.079.729-1.212l1.941-.482c.534-.133 1.078.193 1.212.729.133.536-.193 1.079-.729 1.212l-1.941.482C55.448 17.183 55.367 17.192 55.287 17.192zM53.724 12.791c-.376 0-.735-.212-.905-.574-.235-.5-.021-1.095.479-1.331l1.81-.852c.5-.238 1.095-.021 1.33.479s.021 1.095-.479 1.331l-1.81.852C54.011 12.76 53.866 12.791 53.724 12.791z"/><g><path fill="#8d6c9f" d="M10.279 12.785c-.143 0-.287-.03-.425-.095l-1.81-.853c-.5-.235-.714-.832-.479-1.331.234-.5.83-.715 1.33-.479l1.81.853c.5.235.714.832.479 1.331C11.015 12.573 10.654 12.785 10.279 12.785zM8.717 17.177c-.08 0-.161-.009-.242-.03l-1.941-.483c-.536-.133-.862-.676-.729-1.212s.677-.866 1.212-.729l1.941.483c.536.133.862.676.729 1.212C9.573 16.874 9.165 17.177 8.717 17.177zM8.035 21.792c-.017 0-.033 0-.05-.001l-1.998-.099c-.552-.027-.978-.497-.95-1.048.027-.551.507-.971 1.048-.95l1.998.099c.552.027.978.497.95 1.048C9.007 21.375 8.564 21.792 8.035 21.792zM6.269 26.739c-.489 0-.917-.359-.989-.857-.078-.547.301-1.054.848-1.132l1.98-.285c.555-.079 1.053.301 1.133.847.078.547-.301 1.054-.848 1.132l-1.98.285C6.363 26.735 6.315 26.739 6.269 26.739zM7.475 31.648c-.412 0-.798-.257-.943-.668-.184-.521.09-1.092.61-1.275l1.886-.665c.521-.185 1.092.089 1.276.61.184.521-.09 1.092-.61 1.275L7.808 31.59C7.697 31.629 7.585 31.648 7.475 31.648z"/></g></svg>